G04 #@! TF.FileFunction,Copper,L2,Bot,Signal*
%FSLAX46Y46*%
G04 Gerber Fmt 4.6, Leading zero omitted, Abs format (unit mm)*
G04 Created by KiCad (PCBNEW 4.0.7) date 04/05/18 15:18:43*
%MOMM*%
%LPD*%
G01*
G04 APERTURE LIST*
%ADD10C,0.100000*%
%ADD11O,1.700000X1.700000*%
%ADD12R,1.700000X1.700000*%
%ADD13C,1.700000*%
%ADD14R,1.900000X0.800000*%
%ADD15R,2.000000X3.800000*%
%ADD16R,2.000000X1.500000*%
%ADD17R,1.700000X2.000000*%
%ADD18R,2.000000X1.700000*%
%ADD19C,4.064000*%
%ADD20C,2.500000*%
%ADD21R,2.000000X1.600000*%
%ADD22C,0.600000*%
%ADD23C,0.250000*%
%ADD24C,0.500000*%
%ADD25C,0.350000*%
%ADD26C,0.254000*%
G04 APERTURE END LIST*
D10*
D11*
X137530000Y-108960000D03*
X134990000Y-108960000D03*
X132450000Y-108960000D03*
X129910000Y-108960000D03*
X127370000Y-108960000D03*
X124830000Y-108960000D03*
X122290000Y-108960000D03*
X119750000Y-108960000D03*
X117210000Y-108960000D03*
X114670000Y-108960000D03*
X112130000Y-108960000D03*
X109590000Y-108960000D03*
X107050000Y-108960000D03*
X104510000Y-108960000D03*
X101970000Y-108960000D03*
X99430000Y-108960000D03*
X96890000Y-108960000D03*
D12*
X94350000Y-108960000D03*
D13*
X94350000Y-86100000D03*
D11*
X96890000Y-86100000D03*
X99430000Y-86100000D03*
X101970000Y-86100000D03*
X104510000Y-86100000D03*
X107050000Y-86100000D03*
X109590000Y-86100000D03*
X112130000Y-86100000D03*
X114670000Y-86100000D03*
X117210000Y-86100000D03*
X119750000Y-86100000D03*
X122290000Y-86100000D03*
X124830000Y-86100000D03*
X127370000Y-86100000D03*
X129910000Y-86100000D03*
X132450000Y-86100000D03*
X134990000Y-86100000D03*
X137530000Y-86100000D03*
D12*
X171100000Y-106450000D03*
D11*
X173640000Y-106450000D03*
X176180000Y-106450000D03*
D12*
X192103000Y-94320000D03*
D11*
X192103000Y-91780000D03*
X192103000Y-89240000D03*
D12*
X151638000Y-106807000D03*
D11*
X151638000Y-104267000D03*
X151638000Y-101727000D03*
X151638000Y-99187000D03*
D12*
X151600000Y-90800000D03*
D11*
X151600000Y-88260000D03*
D12*
X167200000Y-99100000D03*
D11*
X167200000Y-101640000D03*
X167200000Y-104180000D03*
D12*
X161900000Y-99100000D03*
D11*
X164440000Y-99100000D03*
X161900000Y-101640000D03*
X164440000Y-101640000D03*
X161900000Y-104180000D03*
X164440000Y-104180000D03*
D12*
X148971000Y-106807000D03*
D11*
X148971000Y-104267000D03*
X148971000Y-101727000D03*
X148971000Y-99187000D03*
D12*
X148700000Y-90800000D03*
D11*
X148700000Y-88260000D03*
D14*
X110527000Y-98962000D03*
X110527000Y-97062000D03*
X113527000Y-98012000D03*
X122727000Y-101262000D03*
X122727000Y-99362000D03*
X125727000Y-100312000D03*
D15*
X105877000Y-100312000D03*
D16*
X99577000Y-100312000D03*
X99577000Y-98012000D03*
X99577000Y-102612000D03*
D17*
X144145000Y-89440000D03*
X144145000Y-93440000D03*
X135763000Y-89694000D03*
X135763000Y-93694000D03*
D18*
X110527000Y-102612000D03*
X114527000Y-102612000D03*
D17*
X118577360Y-98444300D03*
X118577360Y-102444300D03*
D19*
X96420000Y-105770000D03*
X191170000Y-105770000D03*
X191180000Y-77770000D03*
X96180000Y-77770000D03*
D20*
X182200000Y-105800000D03*
X182200000Y-77800000D03*
D21*
X105900000Y-105500000D03*
X101900000Y-105500000D03*
D22*
X127100000Y-98100000D03*
X115500000Y-99900000D03*
X101000000Y-77600000D03*
X105800000Y-82500000D03*
X118500000Y-82400000D03*
D23*
X125727000Y-100312000D02*
X125727000Y-95073000D01*
X131106000Y-89694000D02*
X135763000Y-89694000D01*
X125727000Y-95073000D02*
X131106000Y-89694000D01*
X137530000Y-86100000D02*
X137530000Y-87927000D01*
X137530000Y-87927000D02*
X135763000Y-89694000D01*
X151600000Y-88260000D02*
X148700000Y-88260000D01*
X149160000Y-99100000D02*
X151700000Y-99100000D01*
X149160000Y-101640000D02*
X151700000Y-101640000D01*
X149160000Y-104180000D02*
X151700000Y-104180000D01*
X149160000Y-106720000D02*
X151700000Y-106720000D01*
X144145000Y-93440000D02*
X148740000Y-93440000D01*
X148740000Y-93440000D02*
X151900000Y-96600000D01*
X161900000Y-104180000D02*
X159480000Y-104180000D01*
X138669000Y-96600000D02*
X135763000Y-93694000D01*
X151900000Y-96600000D02*
X138669000Y-96600000D01*
X159480000Y-104180000D02*
X151900000Y-96600000D01*
D24*
X99577000Y-98012000D02*
X99577000Y-86247000D01*
D23*
X99577000Y-86247000D02*
X99430000Y-86100000D01*
D24*
X99557000Y-97992000D02*
X99577000Y-98012000D01*
D23*
X144145000Y-89440000D02*
X139560000Y-89440000D01*
X133500000Y-91700000D02*
X127100000Y-98100000D01*
X137300000Y-91700000D02*
X133500000Y-91700000D01*
X139560000Y-89440000D02*
X137300000Y-91700000D01*
X113527000Y-98012000D02*
X113612000Y-98012000D01*
X113612000Y-98012000D02*
X115500000Y-99900000D01*
X148700000Y-90800000D02*
X145505000Y-90800000D01*
X145505000Y-90800000D02*
X144145000Y-89440000D01*
X148700000Y-90800000D02*
X151600000Y-90800000D01*
X134990000Y-86100000D02*
X134990000Y-85410000D01*
X134990000Y-85410000D02*
X136900000Y-83500000D01*
X183823000Y-83500000D02*
X192103000Y-91780000D01*
X136900000Y-83500000D02*
X183823000Y-83500000D01*
X134990000Y-86100000D02*
X135000000Y-86100000D01*
X105877000Y-100312000D02*
X105877000Y-105477000D01*
X105877000Y-105477000D02*
X105900000Y-105500000D01*
X100700000Y-77900000D02*
X100700000Y-95135000D01*
X100827000Y-95262000D02*
X105877000Y-100312000D01*
X100700000Y-95135000D02*
X100827000Y-95262000D01*
X118577360Y-102444300D02*
X118577360Y-102944300D01*
X118577360Y-102944300D02*
X116527000Y-104612000D01*
X112527000Y-104612000D02*
X110527000Y-102612000D01*
X116527000Y-104612000D02*
X112527000Y-104612000D01*
X110527000Y-102612000D02*
X110527000Y-101662000D01*
X110527000Y-101662000D02*
X109177000Y-100312000D01*
X105877000Y-100312000D02*
X109177000Y-100312000D01*
X109177000Y-100312000D02*
X110527000Y-98962000D01*
X101000000Y-77600000D02*
X100700000Y-77900000D01*
X100700000Y-77900000D02*
X100700000Y-77900000D01*
D25*
X118577360Y-102444300D02*
X121577000Y-102412000D01*
X121577000Y-102412000D02*
X122727000Y-101262000D01*
X110527000Y-102612000D02*
X110527000Y-101912000D01*
D23*
X105800000Y-87700000D02*
X105800000Y-94785000D01*
X108077000Y-97062000D02*
X105927000Y-94912000D01*
X108077000Y-97062000D02*
X110527000Y-97062000D01*
X105800000Y-94785000D02*
X105927000Y-94912000D01*
X105800000Y-87800000D02*
X105800000Y-87700000D01*
X105800000Y-87700000D02*
X105800000Y-82500000D01*
X114527000Y-102612000D02*
X114527000Y-101062000D01*
X114527000Y-101062000D02*
X110527000Y-97062000D01*
X118500000Y-98366940D02*
X118500000Y-82400000D01*
X118500000Y-98366940D02*
X118577360Y-98444300D01*
X118577360Y-98444300D02*
X121777000Y-98412000D01*
X121777000Y-98412000D02*
X122727000Y-99362000D01*
D26*
G36*
X195490000Y-110290000D02*
X138204625Y-110290000D01*
X138580054Y-110039147D01*
X138901961Y-109557378D01*
X139015000Y-108989093D01*
X139015000Y-108930907D01*
X138901961Y-108362622D01*
X138580054Y-107880853D01*
X138098285Y-107558946D01*
X137530000Y-107445907D01*
X136961715Y-107558946D01*
X136479946Y-107880853D01*
X136260000Y-108210026D01*
X136040054Y-107880853D01*
X135558285Y-107558946D01*
X134990000Y-107445907D01*
X134421715Y-107558946D01*
X133939946Y-107880853D01*
X133720000Y-108210026D01*
X133500054Y-107880853D01*
X133018285Y-107558946D01*
X132450000Y-107445907D01*
X131881715Y-107558946D01*
X131399946Y-107880853D01*
X131180000Y-108210026D01*
X130960054Y-107880853D01*
X130478285Y-107558946D01*
X129910000Y-107445907D01*
X129341715Y-107558946D01*
X128859946Y-107880853D01*
X128640000Y-108210026D01*
X128420054Y-107880853D01*
X127938285Y-107558946D01*
X127370000Y-107445907D01*
X126801715Y-107558946D01*
X126319946Y-107880853D01*
X126100000Y-108210026D01*
X125880054Y-107880853D01*
X125398285Y-107558946D01*
X124830000Y-107445907D01*
X124261715Y-107558946D01*
X123779946Y-107880853D01*
X123560000Y-108210026D01*
X123340054Y-107880853D01*
X122858285Y-107558946D01*
X122290000Y-107445907D01*
X121721715Y-107558946D01*
X121239946Y-107880853D01*
X121020000Y-108210026D01*
X120800054Y-107880853D01*
X120318285Y-107558946D01*
X119750000Y-107445907D01*
X119181715Y-107558946D01*
X118699946Y-107880853D01*
X118480000Y-108210026D01*
X118260054Y-107880853D01*
X117778285Y-107558946D01*
X117210000Y-107445907D01*
X116641715Y-107558946D01*
X116159946Y-107880853D01*
X115940000Y-108210026D01*
X115720054Y-107880853D01*
X115238285Y-107558946D01*
X114670000Y-107445907D01*
X114101715Y-107558946D01*
X113619946Y-107880853D01*
X113400000Y-108210026D01*
X113180054Y-107880853D01*
X112698285Y-107558946D01*
X112130000Y-107445907D01*
X111561715Y-107558946D01*
X111079946Y-107880853D01*
X110860000Y-108210026D01*
X110640054Y-107880853D01*
X110158285Y-107558946D01*
X109590000Y-107445907D01*
X109021715Y-107558946D01*
X108539946Y-107880853D01*
X108320000Y-108210026D01*
X108100054Y-107880853D01*
X107618285Y-107558946D01*
X107050000Y-107445907D01*
X106481715Y-107558946D01*
X105999946Y-107880853D01*
X105780000Y-108210026D01*
X105560054Y-107880853D01*
X105078285Y-107558946D01*
X104510000Y-107445907D01*
X103941715Y-107558946D01*
X103459946Y-107880853D01*
X103240000Y-108210026D01*
X103020054Y-107880853D01*
X102538285Y-107558946D01*
X101970000Y-107445907D01*
X101401715Y-107558946D01*
X100919946Y-107880853D01*
X100700000Y-108210026D01*
X100480054Y-107880853D01*
X99998285Y-107558946D01*
X99430000Y-107445907D01*
X98861715Y-107558946D01*
X98379946Y-107880853D01*
X98160000Y-108210026D01*
X97996235Y-107964934D01*
X98679655Y-107282707D01*
X99086536Y-106302827D01*
X99086987Y-105785750D01*
X100265000Y-105785750D01*
X100265000Y-106426310D01*
X100361673Y-106659699D01*
X100540302Y-106838327D01*
X100773691Y-106935000D01*
X101614250Y-106935000D01*
X101773000Y-106776250D01*
X101773000Y-105627000D01*
X102027000Y-105627000D01*
X102027000Y-106776250D01*
X102185750Y-106935000D01*
X103026309Y-106935000D01*
X103259698Y-106838327D01*
X103438327Y-106659699D01*
X103535000Y-106426310D01*
X103535000Y-105785750D01*
X103376250Y-105627000D01*
X102027000Y-105627000D01*
X101773000Y-105627000D01*
X100423750Y-105627000D01*
X100265000Y-105785750D01*
X99086987Y-105785750D01*
X99087462Y-105241828D01*
X98811394Y-104573690D01*
X100265000Y-104573690D01*
X100265000Y-105214250D01*
X100423750Y-105373000D01*
X101773000Y-105373000D01*
X101773000Y-104223750D01*
X102027000Y-104223750D01*
X102027000Y-105373000D01*
X103376250Y-105373000D01*
X103535000Y-105214250D01*
X103535000Y-104573690D01*
X103438327Y-104340301D01*
X103259698Y-104161673D01*
X103026309Y-104065000D01*
X102185750Y-104065000D01*
X102027000Y-104223750D01*
X101773000Y-104223750D01*
X101614250Y-104065000D01*
X100773691Y-104065000D01*
X100540302Y-104161673D01*
X100361673Y-104340301D01*
X100265000Y-104573690D01*
X98811394Y-104573690D01*
X98682291Y-104261239D01*
X98395827Y-103974275D01*
X98450691Y-103997000D01*
X99291250Y-103997000D01*
X99450000Y-103838250D01*
X99450000Y-102739000D01*
X99704000Y-102739000D01*
X99704000Y-103838250D01*
X99862750Y-103997000D01*
X100703309Y-103997000D01*
X100936698Y-103900327D01*
X101115327Y-103721699D01*
X101212000Y-103488310D01*
X101212000Y-102897750D01*
X101053250Y-102739000D01*
X99704000Y-102739000D01*
X99450000Y-102739000D01*
X98100750Y-102739000D01*
X97942000Y-102897750D01*
X97942000Y-103488310D01*
X97964191Y-103541884D01*
X97932707Y-103510345D01*
X96952827Y-103103464D01*
X95891828Y-103102538D01*
X94911239Y-103507709D01*
X94160345Y-104257293D01*
X93753464Y-105237173D01*
X93752538Y-106298172D01*
X94157709Y-107278761D01*
X94494555Y-107616195D01*
X94477000Y-107633750D01*
X94477000Y-108833000D01*
X94497000Y-108833000D01*
X94497000Y-109087000D01*
X94477000Y-109087000D01*
X94477000Y-109107000D01*
X94223000Y-109107000D01*
X94223000Y-109087000D01*
X93023750Y-109087000D01*
X92865000Y-109245750D01*
X92865000Y-109936309D01*
X92961673Y-110169698D01*
X93081974Y-110290000D01*
X91910000Y-110290000D01*
X91910000Y-107983691D01*
X92865000Y-107983691D01*
X92865000Y-108674250D01*
X93023750Y-108833000D01*
X94223000Y-108833000D01*
X94223000Y-107633750D01*
X94064250Y-107475000D01*
X93373690Y-107475000D01*
X93140301Y-107571673D01*
X92961673Y-107750302D01*
X92865000Y-107983691D01*
X91910000Y-107983691D01*
X91910000Y-87143958D01*
X93485647Y-87143958D01*
X93565920Y-87395259D01*
X94121279Y-87596718D01*
X94711458Y-87570315D01*
X95134080Y-87395259D01*
X95214353Y-87143958D01*
X94350000Y-86279605D01*
X93485647Y-87143958D01*
X91910000Y-87143958D01*
X91910000Y-85871279D01*
X92853282Y-85871279D01*
X92879685Y-86461458D01*
X93054741Y-86884080D01*
X93306042Y-86964353D01*
X94170395Y-86100000D01*
X94529605Y-86100000D01*
X95393958Y-86964353D01*
X95643223Y-86884730D01*
X95839946Y-87179147D01*
X96321715Y-87501054D01*
X96890000Y-87614093D01*
X97458285Y-87501054D01*
X97940054Y-87179147D01*
X98160000Y-86849974D01*
X98379946Y-87179147D01*
X98692000Y-87387654D01*
X98692000Y-96614560D01*
X98577000Y-96614560D01*
X98341683Y-96658838D01*
X98125559Y-96797910D01*
X97980569Y-97010110D01*
X97929560Y-97262000D01*
X97929560Y-98762000D01*
X97973838Y-98997317D01*
X98080759Y-99163477D01*
X97980569Y-99310110D01*
X97929560Y-99562000D01*
X97929560Y-101062000D01*
X97973838Y-101297317D01*
X98079482Y-101461492D01*
X98038673Y-101502301D01*
X97942000Y-101735690D01*
X97942000Y-102326250D01*
X98100750Y-102485000D01*
X99450000Y-102485000D01*
X99450000Y-102465000D01*
X99704000Y-102465000D01*
X99704000Y-102485000D01*
X101053250Y-102485000D01*
X101212000Y-102326250D01*
X101212000Y-101735690D01*
X101115327Y-101502301D01*
X101073366Y-101460340D01*
X101173431Y-101313890D01*
X101224440Y-101062000D01*
X101224440Y-99562000D01*
X101180162Y-99326683D01*
X101073241Y-99160523D01*
X101173431Y-99013890D01*
X101224440Y-98762000D01*
X101224440Y-97262000D01*
X101180162Y-97026683D01*
X101041090Y-96810559D01*
X100828890Y-96665569D01*
X100577000Y-96614560D01*
X100462000Y-96614560D01*
X100462000Y-95971802D01*
X104229560Y-99739363D01*
X104229560Y-102212000D01*
X104273838Y-102447317D01*
X104412910Y-102663441D01*
X104625110Y-102808431D01*
X104877000Y-102859440D01*
X105117000Y-102859440D01*
X105117000Y-104052560D01*
X104900000Y-104052560D01*
X104664683Y-104096838D01*
X104448559Y-104235910D01*
X104303569Y-104448110D01*
X104252560Y-104700000D01*
X104252560Y-106300000D01*
X104296838Y-106535317D01*
X104435910Y-106751441D01*
X104648110Y-106896431D01*
X104900000Y-106947440D01*
X106900000Y-106947440D01*
X107135317Y-106903162D01*
X107351441Y-106764090D01*
X107496431Y-106551890D01*
X107547440Y-106300000D01*
X107547440Y-104700000D01*
X107503162Y-104464683D01*
X107364090Y-104248559D01*
X107151890Y-104103569D01*
X106900000Y-104052560D01*
X106637000Y-104052560D01*
X106637000Y-102859440D01*
X106877000Y-102859440D01*
X107112317Y-102815162D01*
X107328441Y-102676090D01*
X107473431Y-102463890D01*
X107524440Y-102212000D01*
X107524440Y-101072000D01*
X108862198Y-101072000D01*
X109083195Y-101292997D01*
X109075559Y-101297910D01*
X108930569Y-101510110D01*
X108879560Y-101762000D01*
X108879560Y-103462000D01*
X108923838Y-103697317D01*
X109062910Y-103913441D01*
X109275110Y-104058431D01*
X109527000Y-104109440D01*
X110949638Y-104109440D01*
X111989599Y-105149401D01*
X112236161Y-105314148D01*
X112527000Y-105372000D01*
X116527000Y-105372000D01*
X116634903Y-105350537D01*
X116744426Y-105340234D01*
X116779226Y-105321829D01*
X116817839Y-105314148D01*
X116909308Y-105253030D01*
X117006559Y-105201596D01*
X118371076Y-104091740D01*
X119427360Y-104091740D01*
X119662677Y-104047462D01*
X119878801Y-103908390D01*
X120023791Y-103696190D01*
X120074800Y-103444300D01*
X120074800Y-103238223D01*
X121585722Y-103221953D01*
X121736239Y-103190325D01*
X121886973Y-103160342D01*
X121890665Y-103157875D01*
X121895014Y-103156961D01*
X122021960Y-103070146D01*
X122149756Y-102984756D01*
X122825073Y-102309440D01*
X123677000Y-102309440D01*
X123912317Y-102265162D01*
X124128441Y-102126090D01*
X124273431Y-101913890D01*
X124324440Y-101662000D01*
X124324440Y-101171319D01*
X124525110Y-101308431D01*
X124777000Y-101359440D01*
X126677000Y-101359440D01*
X126912317Y-101315162D01*
X127128441Y-101176090D01*
X127273431Y-100963890D01*
X127324440Y-100712000D01*
X127324440Y-99912000D01*
X127280162Y-99676683D01*
X127141090Y-99460559D01*
X126928890Y-99315569D01*
X126677000Y-99264560D01*
X126487000Y-99264560D01*
X126487000Y-98809375D01*
X126569673Y-98892192D01*
X126913201Y-99034838D01*
X127285167Y-99035162D01*
X127628943Y-98893117D01*
X127892192Y-98630327D01*
X128034838Y-98286799D01*
X128034879Y-98239923D01*
X133814802Y-92460000D01*
X134312946Y-92460000D01*
X134265560Y-92694000D01*
X134265560Y-94694000D01*
X134309838Y-94929317D01*
X134448910Y-95145441D01*
X134661110Y-95290431D01*
X134913000Y-95341440D01*
X136335638Y-95341440D01*
X138131599Y-97137401D01*
X138378161Y-97302148D01*
X138669000Y-97360000D01*
X151585198Y-97360000D01*
X151991783Y-97766585D01*
X151667093Y-97702000D01*
X151608907Y-97702000D01*
X151040622Y-97815039D01*
X150558853Y-98136946D01*
X150423177Y-98340000D01*
X150185823Y-98340000D01*
X150050147Y-98136946D01*
X149568378Y-97815039D01*
X149000093Y-97702000D01*
X148941907Y-97702000D01*
X148373622Y-97815039D01*
X147891853Y-98136946D01*
X147569946Y-98618715D01*
X147456907Y-99187000D01*
X147569946Y-99755285D01*
X147891853Y-100237054D01*
X148221026Y-100457000D01*
X147891853Y-100676946D01*
X147569946Y-101158715D01*
X147456907Y-101727000D01*
X147569946Y-102295285D01*
X147891853Y-102777054D01*
X148221026Y-102997000D01*
X147891853Y-103216946D01*
X147569946Y-103698715D01*
X147456907Y-104267000D01*
X147569946Y-104835285D01*
X147891853Y-105317054D01*
X147933452Y-105344850D01*
X147885683Y-105353838D01*
X147669559Y-105492910D01*
X147524569Y-105705110D01*
X147473560Y-105957000D01*
X147473560Y-107657000D01*
X147517838Y-107892317D01*
X147656910Y-108108441D01*
X147869110Y-108253431D01*
X148121000Y-108304440D01*
X149821000Y-108304440D01*
X150056317Y-108260162D01*
X150272441Y-108121090D01*
X150303139Y-108076162D01*
X150323910Y-108108441D01*
X150536110Y-108253431D01*
X150788000Y-108304440D01*
X152488000Y-108304440D01*
X152723317Y-108260162D01*
X152939441Y-108121090D01*
X153084431Y-107908890D01*
X153135440Y-107657000D01*
X153135440Y-106735750D01*
X169615000Y-106735750D01*
X169615000Y-107426309D01*
X169711673Y-107659698D01*
X169890301Y-107838327D01*
X170123690Y-107935000D01*
X170814250Y-107935000D01*
X170973000Y-107776250D01*
X170973000Y-106577000D01*
X169773750Y-106577000D01*
X169615000Y-106735750D01*
X153135440Y-106735750D01*
X153135440Y-105957000D01*
X153091162Y-105721683D01*
X152952090Y-105505559D01*
X152739890Y-105360569D01*
X152672459Y-105346914D01*
X152717147Y-105317054D01*
X153039054Y-104835285D01*
X153152093Y-104267000D01*
X153039054Y-103698715D01*
X152717147Y-103216946D01*
X152387974Y-102997000D01*
X152717147Y-102777054D01*
X153039054Y-102295285D01*
X153152093Y-101727000D01*
X153039054Y-101158715D01*
X152717147Y-100676946D01*
X152387974Y-100457000D01*
X152717147Y-100237054D01*
X153039054Y-99755285D01*
X153152093Y-99187000D01*
X153087508Y-98862310D01*
X158942599Y-104717401D01*
X159189161Y-104882148D01*
X159480000Y-104940000D01*
X160627046Y-104940000D01*
X160820853Y-105230054D01*
X161302622Y-105551961D01*
X161870907Y-105665000D01*
X161929093Y-105665000D01*
X162497378Y-105551961D01*
X162979147Y-105230054D01*
X163170000Y-104944422D01*
X163360853Y-105230054D01*
X163842622Y-105551961D01*
X164410907Y-105665000D01*
X164469093Y-105665000D01*
X165037378Y-105551961D01*
X165519147Y-105230054D01*
X165820000Y-104779795D01*
X166120853Y-105230054D01*
X166602622Y-105551961D01*
X167170907Y-105665000D01*
X167229093Y-105665000D01*
X167797378Y-105551961D01*
X167914517Y-105473691D01*
X169615000Y-105473691D01*
X169615000Y-106164250D01*
X169773750Y-106323000D01*
X170973000Y-106323000D01*
X170973000Y-105123750D01*
X171227000Y-105123750D01*
X171227000Y-106323000D01*
X171247000Y-106323000D01*
X171247000Y-106577000D01*
X171227000Y-106577000D01*
X171227000Y-107776250D01*
X171385750Y-107935000D01*
X172076310Y-107935000D01*
X172309699Y-107838327D01*
X172488327Y-107659698D01*
X172560597Y-107485223D01*
X172589946Y-107529147D01*
X173071715Y-107851054D01*
X173640000Y-107964093D01*
X174208285Y-107851054D01*
X174690054Y-107529147D01*
X174910000Y-107199974D01*
X175129946Y-107529147D01*
X175611715Y-107851054D01*
X176180000Y-107964093D01*
X176748285Y-107851054D01*
X177230054Y-107529147D01*
X177551961Y-107047378D01*
X177665000Y-106479093D01*
X177665000Y-106420907D01*
X177615749Y-106173305D01*
X180314674Y-106173305D01*
X180601043Y-106866372D01*
X181130839Y-107397093D01*
X181823405Y-107684672D01*
X182573305Y-107685326D01*
X183266372Y-107398957D01*
X183797093Y-106869161D01*
X184034188Y-106298172D01*
X188502538Y-106298172D01*
X188907709Y-107278761D01*
X189657293Y-108029655D01*
X190637173Y-108436536D01*
X191698172Y-108437462D01*
X192678761Y-108032291D01*
X193429655Y-107282707D01*
X193836536Y-106302827D01*
X193837462Y-105241828D01*
X193432291Y-104261239D01*
X192682707Y-103510345D01*
X191702827Y-103103464D01*
X190641828Y-103102538D01*
X189661239Y-103507709D01*
X188910345Y-104257293D01*
X188503464Y-105237173D01*
X188502538Y-106298172D01*
X184034188Y-106298172D01*
X184084672Y-106176595D01*
X184085326Y-105426695D01*
X183798957Y-104733628D01*
X183269161Y-104202907D01*
X182576595Y-103915328D01*
X181826695Y-103914674D01*
X181133628Y-104201043D01*
X180602907Y-104730839D01*
X180315328Y-105423405D01*
X180314674Y-106173305D01*
X177615749Y-106173305D01*
X177551961Y-105852622D01*
X177230054Y-105370853D01*
X176748285Y-105048946D01*
X176180000Y-104935907D01*
X175611715Y-105048946D01*
X175129946Y-105370853D01*
X174910000Y-105700026D01*
X174690054Y-105370853D01*
X174208285Y-105048946D01*
X173640000Y-104935907D01*
X173071715Y-105048946D01*
X172589946Y-105370853D01*
X172560597Y-105414777D01*
X172488327Y-105240302D01*
X172309699Y-105061673D01*
X172076310Y-104965000D01*
X171385750Y-104965000D01*
X171227000Y-105123750D01*
X170973000Y-105123750D01*
X170814250Y-104965000D01*
X170123690Y-104965000D01*
X169890301Y-105061673D01*
X169711673Y-105240302D01*
X169615000Y-105473691D01*
X167914517Y-105473691D01*
X168279147Y-105230054D01*
X168601054Y-104748285D01*
X168714093Y-104180000D01*
X168601054Y-103611715D01*
X168279147Y-103129946D01*
X167949974Y-102910000D01*
X168279147Y-102690054D01*
X168601054Y-102208285D01*
X168714093Y-101640000D01*
X168601054Y-101071715D01*
X168279147Y-100589946D01*
X168235223Y-100560597D01*
X168409698Y-100488327D01*
X168588327Y-100309699D01*
X168685000Y-100076310D01*
X168685000Y-99385750D01*
X168526250Y-99227000D01*
X167327000Y-99227000D01*
X167327000Y-99247000D01*
X167073000Y-99247000D01*
X167073000Y-99227000D01*
X165873750Y-99227000D01*
X165799395Y-99301355D01*
X165760155Y-99227000D01*
X164567000Y-99227000D01*
X164567000Y-99247000D01*
X164313000Y-99247000D01*
X164313000Y-99227000D01*
X162027000Y-99227000D01*
X162027000Y-99247000D01*
X161773000Y-99247000D01*
X161773000Y-99227000D01*
X160573750Y-99227000D01*
X160415000Y-99385750D01*
X160415000Y-100076310D01*
X160511673Y-100309699D01*
X160690302Y-100488327D01*
X160864777Y-100560597D01*
X160820853Y-100589946D01*
X160498946Y-101071715D01*
X160385907Y-101640000D01*
X160498946Y-102208285D01*
X160820853Y-102690054D01*
X161150026Y-102910000D01*
X160820853Y-103129946D01*
X160627046Y-103420000D01*
X159794802Y-103420000D01*
X154498492Y-98123690D01*
X160415000Y-98123690D01*
X160415000Y-98814250D01*
X160573750Y-98973000D01*
X161773000Y-98973000D01*
X161773000Y-97773750D01*
X162027000Y-97773750D01*
X162027000Y-98973000D01*
X164313000Y-98973000D01*
X164313000Y-97779181D01*
X164567000Y-97779181D01*
X164567000Y-98973000D01*
X165760155Y-98973000D01*
X165799395Y-98898645D01*
X165873750Y-98973000D01*
X167073000Y-98973000D01*
X167073000Y-97773750D01*
X167327000Y-97773750D01*
X167327000Y-98973000D01*
X168526250Y-98973000D01*
X168685000Y-98814250D01*
X168685000Y-98123690D01*
X168588327Y-97890301D01*
X168409698Y-97711673D01*
X168176309Y-97615000D01*
X167485750Y-97615000D01*
X167327000Y-97773750D01*
X167073000Y-97773750D01*
X166914250Y-97615000D01*
X166223691Y-97615000D01*
X165990302Y-97711673D01*
X165811673Y-97890301D01*
X165715000Y-98123690D01*
X165715000Y-98341176D01*
X165711645Y-98333076D01*
X165321358Y-97904817D01*
X164796892Y-97658514D01*
X164567000Y-97779181D01*
X164313000Y-97779181D01*
X164083108Y-97658514D01*
X163558642Y-97904817D01*
X163376930Y-98104208D01*
X163288327Y-97890301D01*
X163109698Y-97711673D01*
X162876309Y-97615000D01*
X162185750Y-97615000D01*
X162027000Y-97773750D01*
X161773000Y-97773750D01*
X161614250Y-97615000D01*
X160923691Y-97615000D01*
X160690302Y-97711673D01*
X160511673Y-97890301D01*
X160415000Y-98123690D01*
X154498492Y-98123690D01*
X150980552Y-94605750D01*
X190618000Y-94605750D01*
X190618000Y-95296310D01*
X190714673Y-95529699D01*
X190893302Y-95708327D01*
X191126691Y-95805000D01*
X191817250Y-95805000D01*
X191976000Y-95646250D01*
X191976000Y-94447000D01*
X192230000Y-94447000D01*
X192230000Y-95646250D01*
X192388750Y-95805000D01*
X193079309Y-95805000D01*
X193312698Y-95708327D01*
X193491327Y-95529699D01*
X193588000Y-95296310D01*
X193588000Y-94605750D01*
X193429250Y-94447000D01*
X192230000Y-94447000D01*
X191976000Y-94447000D01*
X190776750Y-94447000D01*
X190618000Y-94605750D01*
X150980552Y-94605750D01*
X149277401Y-92902599D01*
X149030839Y-92737852D01*
X148740000Y-92680000D01*
X145642440Y-92680000D01*
X145642440Y-92440000D01*
X145598162Y-92204683D01*
X145459090Y-91988559D01*
X145246890Y-91843569D01*
X144995000Y-91792560D01*
X143295000Y-91792560D01*
X143059683Y-91836838D01*
X142843559Y-91975910D01*
X142698569Y-92188110D01*
X142647560Y-92440000D01*
X142647560Y-94440000D01*
X142691838Y-94675317D01*
X142830910Y-94891441D01*
X143043110Y-95036431D01*
X143295000Y-95087440D01*
X144995000Y-95087440D01*
X145230317Y-95043162D01*
X145446441Y-94904090D01*
X145591431Y-94691890D01*
X145642440Y-94440000D01*
X145642440Y-94200000D01*
X148425198Y-94200000D01*
X150065198Y-95840000D01*
X138983802Y-95840000D01*
X137260440Y-94116638D01*
X137260440Y-92694000D01*
X137216410Y-92460000D01*
X137300000Y-92460000D01*
X137590839Y-92402148D01*
X137837401Y-92237401D01*
X139874802Y-90200000D01*
X142647560Y-90200000D01*
X142647560Y-90440000D01*
X142691838Y-90675317D01*
X142830910Y-90891441D01*
X143043110Y-91036431D01*
X143295000Y-91087440D01*
X144717638Y-91087440D01*
X144967599Y-91337401D01*
X145214160Y-91502148D01*
X145262414Y-91511746D01*
X145505000Y-91560000D01*
X147202560Y-91560000D01*
X147202560Y-91650000D01*
X147246838Y-91885317D01*
X147385910Y-92101441D01*
X147598110Y-92246431D01*
X147850000Y-92297440D01*
X149550000Y-92297440D01*
X149785317Y-92253162D01*
X150001441Y-92114090D01*
X150146431Y-91901890D01*
X150149081Y-91888803D01*
X150285910Y-92101441D01*
X150498110Y-92246431D01*
X150750000Y-92297440D01*
X152450000Y-92297440D01*
X152685317Y-92253162D01*
X152901441Y-92114090D01*
X153046431Y-91901890D01*
X153097440Y-91650000D01*
X153097440Y-89950000D01*
X153053162Y-89714683D01*
X152914090Y-89498559D01*
X152701890Y-89353569D01*
X152634459Y-89339914D01*
X152679147Y-89310054D01*
X153001054Y-88828285D01*
X153114093Y-88260000D01*
X153001054Y-87691715D01*
X152679147Y-87209946D01*
X152197378Y-86888039D01*
X151629093Y-86775000D01*
X151570907Y-86775000D01*
X151002622Y-86888039D01*
X150520853Y-87209946D01*
X150327046Y-87500000D01*
X149972954Y-87500000D01*
X149779147Y-87209946D01*
X149297378Y-86888039D01*
X148729093Y-86775000D01*
X148670907Y-86775000D01*
X148102622Y-86888039D01*
X147620853Y-87209946D01*
X147298946Y-87691715D01*
X147185907Y-88260000D01*
X147298946Y-88828285D01*
X147620853Y-89310054D01*
X147662452Y-89337850D01*
X147614683Y-89346838D01*
X147398559Y-89485910D01*
X147253569Y-89698110D01*
X147202560Y-89950000D01*
X147202560Y-90040000D01*
X145819802Y-90040000D01*
X145642440Y-89862638D01*
X145642440Y-88440000D01*
X145598162Y-88204683D01*
X145459090Y-87988559D01*
X145246890Y-87843569D01*
X144995000Y-87792560D01*
X143295000Y-87792560D01*
X143059683Y-87836838D01*
X142843559Y-87975910D01*
X142698569Y-88188110D01*
X142647560Y-88440000D01*
X142647560Y-88680000D01*
X139560000Y-88680000D01*
X139269161Y-88737852D01*
X139022599Y-88902599D01*
X137260440Y-90664758D01*
X137260440Y-89271362D01*
X138067401Y-88464401D01*
X138232148Y-88217840D01*
X138290000Y-87927000D01*
X138290000Y-87372954D01*
X138580054Y-87179147D01*
X138901961Y-86697378D01*
X139015000Y-86129093D01*
X139015000Y-86070907D01*
X138901961Y-85502622D01*
X138580054Y-85020853D01*
X138098285Y-84698946D01*
X137530000Y-84585907D01*
X136961715Y-84698946D01*
X136479946Y-85020853D01*
X136260000Y-85350026D01*
X136205837Y-85268965D01*
X137214802Y-84260000D01*
X183508198Y-84260000D01*
X190661790Y-91413592D01*
X190588907Y-91780000D01*
X190701946Y-92348285D01*
X191023853Y-92830054D01*
X191067777Y-92859403D01*
X190893302Y-92931673D01*
X190714673Y-93110301D01*
X190618000Y-93343690D01*
X190618000Y-94034250D01*
X190776750Y-94193000D01*
X191976000Y-94193000D01*
X191976000Y-94173000D01*
X192230000Y-94173000D01*
X192230000Y-94193000D01*
X193429250Y-94193000D01*
X193588000Y-94034250D01*
X193588000Y-93343690D01*
X193491327Y-93110301D01*
X193312698Y-92931673D01*
X193138223Y-92859403D01*
X193182147Y-92830054D01*
X193504054Y-92348285D01*
X193617093Y-91780000D01*
X193504054Y-91211715D01*
X193182147Y-90729946D01*
X192852974Y-90510000D01*
X193182147Y-90290054D01*
X193504054Y-89808285D01*
X193617093Y-89240000D01*
X193504054Y-88671715D01*
X193182147Y-88189946D01*
X192700378Y-87868039D01*
X192132093Y-87755000D01*
X192073907Y-87755000D01*
X191505622Y-87868039D01*
X191023853Y-88189946D01*
X190701946Y-88671715D01*
X190597019Y-89199217D01*
X184360401Y-82962599D01*
X184113839Y-82797852D01*
X183823000Y-82740000D01*
X136900000Y-82740000D01*
X136609161Y-82797852D01*
X136362599Y-82962599D01*
X134677039Y-84648159D01*
X134421715Y-84698946D01*
X133939946Y-85020853D01*
X133720000Y-85350026D01*
X133500054Y-85020853D01*
X133018285Y-84698946D01*
X132450000Y-84585907D01*
X131881715Y-84698946D01*
X131399946Y-85020853D01*
X131180000Y-85350026D01*
X130960054Y-85020853D01*
X130478285Y-84698946D01*
X129910000Y-84585907D01*
X129341715Y-84698946D01*
X128859946Y-85020853D01*
X128640000Y-85350026D01*
X128420054Y-85020853D01*
X127938285Y-84698946D01*
X127370000Y-84585907D01*
X126801715Y-84698946D01*
X126319946Y-85020853D01*
X126100000Y-85350026D01*
X125880054Y-85020853D01*
X125398285Y-84698946D01*
X124830000Y-84585907D01*
X124261715Y-84698946D01*
X123779946Y-85020853D01*
X123560000Y-85350026D01*
X123340054Y-85020853D01*
X122858285Y-84698946D01*
X122290000Y-84585907D01*
X121721715Y-84698946D01*
X121239946Y-85020853D01*
X121020000Y-85350026D01*
X120800054Y-85020853D01*
X120318285Y-84698946D01*
X119750000Y-84585907D01*
X119260000Y-84683374D01*
X119260000Y-82962463D01*
X119292192Y-82930327D01*
X119434838Y-82586799D01*
X119435162Y-82214833D01*
X119293117Y-81871057D01*
X119030327Y-81607808D01*
X118686799Y-81465162D01*
X118314833Y-81464838D01*
X117971057Y-81606883D01*
X117707808Y-81869673D01*
X117565162Y-82213201D01*
X117564838Y-82585167D01*
X117706883Y-82928943D01*
X117740000Y-82962118D01*
X117740000Y-84691331D01*
X117210000Y-84585907D01*
X116641715Y-84698946D01*
X116159946Y-85020853D01*
X115940000Y-85350026D01*
X115720054Y-85020853D01*
X115238285Y-84698946D01*
X114670000Y-84585907D01*
X114101715Y-84698946D01*
X113619946Y-85020853D01*
X113400000Y-85350026D01*
X113180054Y-85020853D01*
X112698285Y-84698946D01*
X112130000Y-84585907D01*
X111561715Y-84698946D01*
X111079946Y-85020853D01*
X110860000Y-85350026D01*
X110640054Y-85020853D01*
X110158285Y-84698946D01*
X109590000Y-84585907D01*
X109021715Y-84698946D01*
X108539946Y-85020853D01*
X108320000Y-85350026D01*
X108100054Y-85020853D01*
X107618285Y-84698946D01*
X107050000Y-84585907D01*
X106560000Y-84683374D01*
X106560000Y-83062463D01*
X106592192Y-83030327D01*
X106734838Y-82686799D01*
X106735162Y-82314833D01*
X106593117Y-81971057D01*
X106330327Y-81707808D01*
X105986799Y-81565162D01*
X105614833Y-81564838D01*
X105271057Y-81706883D01*
X105007808Y-81969673D01*
X104865162Y-82313201D01*
X104864838Y-82685167D01*
X105006883Y-83028943D01*
X105040000Y-83062118D01*
X105040000Y-84691331D01*
X104510000Y-84585907D01*
X103941715Y-84698946D01*
X103459946Y-85020853D01*
X103240000Y-85350026D01*
X103020054Y-85020853D01*
X102538285Y-84698946D01*
X101970000Y-84585907D01*
X101460000Y-84687352D01*
X101460000Y-78421604D01*
X101528943Y-78393117D01*
X101749138Y-78173305D01*
X180314674Y-78173305D01*
X180601043Y-78866372D01*
X181130839Y-79397093D01*
X181823405Y-79684672D01*
X182573305Y-79685326D01*
X183266372Y-79398957D01*
X183797093Y-78869161D01*
X184034188Y-78298172D01*
X188512538Y-78298172D01*
X188917709Y-79278761D01*
X189667293Y-80029655D01*
X190647173Y-80436536D01*
X191708172Y-80437462D01*
X192688761Y-80032291D01*
X193439655Y-79282707D01*
X193846536Y-78302827D01*
X193847462Y-77241828D01*
X193442291Y-76261239D01*
X192692707Y-75510345D01*
X191712827Y-75103464D01*
X190651828Y-75102538D01*
X189671239Y-75507709D01*
X188920345Y-76257293D01*
X188513464Y-77237173D01*
X188512538Y-78298172D01*
X184034188Y-78298172D01*
X184084672Y-78176595D01*
X184085326Y-77426695D01*
X183798957Y-76733628D01*
X183269161Y-76202907D01*
X182576595Y-75915328D01*
X181826695Y-75914674D01*
X181133628Y-76201043D01*
X180602907Y-76730839D01*
X180315328Y-77423405D01*
X180314674Y-78173305D01*
X101749138Y-78173305D01*
X101792192Y-78130327D01*
X101934838Y-77786799D01*
X101935162Y-77414833D01*
X101793117Y-77071057D01*
X101530327Y-76807808D01*
X101186799Y-76665162D01*
X100814833Y-76664838D01*
X100471057Y-76806883D01*
X100207808Y-77069673D01*
X100065162Y-77413201D01*
X100065079Y-77508548D01*
X99997852Y-77609161D01*
X99940000Y-77900000D01*
X99940000Y-84687352D01*
X99430000Y-84585907D01*
X98861715Y-84698946D01*
X98379946Y-85020853D01*
X98160000Y-85350026D01*
X97940054Y-85020853D01*
X97458285Y-84698946D01*
X96890000Y-84585907D01*
X96321715Y-84698946D01*
X95839946Y-85020853D01*
X95643223Y-85315270D01*
X95393958Y-85235647D01*
X94529605Y-86100000D01*
X94170395Y-86100000D01*
X93306042Y-85235647D01*
X93054741Y-85315920D01*
X92853282Y-85871279D01*
X91910000Y-85871279D01*
X91910000Y-85056042D01*
X93485647Y-85056042D01*
X94350000Y-85920395D01*
X95214353Y-85056042D01*
X95134080Y-84804741D01*
X94578721Y-84603282D01*
X93988542Y-84629685D01*
X93565920Y-84804741D01*
X93485647Y-85056042D01*
X91910000Y-85056042D01*
X91910000Y-78298172D01*
X93512538Y-78298172D01*
X93917709Y-79278761D01*
X94667293Y-80029655D01*
X95647173Y-80436536D01*
X96708172Y-80437462D01*
X97688761Y-80032291D01*
X98439655Y-79282707D01*
X98846536Y-78302827D01*
X98847462Y-77241828D01*
X98442291Y-76261239D01*
X97692707Y-75510345D01*
X96712827Y-75103464D01*
X95651828Y-75102538D01*
X94671239Y-75507709D01*
X93920345Y-76257293D01*
X93513464Y-77237173D01*
X93512538Y-78298172D01*
X91910000Y-78298172D01*
X91910000Y-73210000D01*
X195490000Y-73210000D01*
X195490000Y-110290000D01*
X195490000Y-110290000D01*
G37*
X195490000Y-110290000D02*
X138204625Y-110290000D01*
X138580054Y-110039147D01*
X138901961Y-109557378D01*
X139015000Y-108989093D01*
X139015000Y-108930907D01*
X138901961Y-108362622D01*
X138580054Y-107880853D01*
X138098285Y-107558946D01*
X137530000Y-107445907D01*
X136961715Y-107558946D01*
X136479946Y-107880853D01*
X136260000Y-108210026D01*
X136040054Y-107880853D01*
X135558285Y-107558946D01*
X134990000Y-107445907D01*
X134421715Y-107558946D01*
X133939946Y-107880853D01*
X133720000Y-108210026D01*
X133500054Y-107880853D01*
X133018285Y-107558946D01*
X132450000Y-107445907D01*
X131881715Y-107558946D01*
X131399946Y-107880853D01*
X131180000Y-108210026D01*
X130960054Y-107880853D01*
X130478285Y-107558946D01*
X129910000Y-107445907D01*
X129341715Y-107558946D01*
X128859946Y-107880853D01*
X128640000Y-108210026D01*
X128420054Y-107880853D01*
X127938285Y-107558946D01*
X127370000Y-107445907D01*
X126801715Y-107558946D01*
X126319946Y-107880853D01*
X126100000Y-108210026D01*
X125880054Y-107880853D01*
X125398285Y-107558946D01*
X124830000Y-107445907D01*
X124261715Y-107558946D01*
X123779946Y-107880853D01*
X123560000Y-108210026D01*
X123340054Y-107880853D01*
X122858285Y-107558946D01*
X122290000Y-107445907D01*
X121721715Y-107558946D01*
X121239946Y-107880853D01*
X121020000Y-108210026D01*
X120800054Y-107880853D01*
X120318285Y-107558946D01*
X119750000Y-107445907D01*
X119181715Y-107558946D01*
X118699946Y-107880853D01*
X118480000Y-108210026D01*
X118260054Y-107880853D01*
X117778285Y-107558946D01*
X117210000Y-107445907D01*
X116641715Y-107558946D01*
X116159946Y-107880853D01*
X115940000Y-108210026D01*
X115720054Y-107880853D01*
X115238285Y-107558946D01*
X114670000Y-107445907D01*
X114101715Y-107558946D01*
X113619946Y-107880853D01*
X113400000Y-108210026D01*
X113180054Y-107880853D01*
X112698285Y-107558946D01*
X112130000Y-107445907D01*
X111561715Y-107558946D01*
X111079946Y-107880853D01*
X110860000Y-108210026D01*
X110640054Y-107880853D01*
X110158285Y-107558946D01*
X109590000Y-107445907D01*
X109021715Y-107558946D01*
X108539946Y-107880853D01*
X108320000Y-108210026D01*
X108100054Y-107880853D01*
X107618285Y-107558946D01*
X107050000Y-107445907D01*
X106481715Y-107558946D01*
X105999946Y-107880853D01*
X105780000Y-108210026D01*
X105560054Y-107880853D01*
X105078285Y-107558946D01*
X104510000Y-107445907D01*
X103941715Y-107558946D01*
X103459946Y-107880853D01*
X103240000Y-108210026D01*
X103020054Y-107880853D01*
X102538285Y-107558946D01*
X101970000Y-107445907D01*
X101401715Y-107558946D01*
X100919946Y-107880853D01*
X100700000Y-108210026D01*
X100480054Y-107880853D01*
X99998285Y-107558946D01*
X99430000Y-107445907D01*
X98861715Y-107558946D01*
X98379946Y-107880853D01*
X98160000Y-108210026D01*
X97996235Y-107964934D01*
X98679655Y-107282707D01*
X99086536Y-106302827D01*
X99086987Y-105785750D01*
X100265000Y-105785750D01*
X100265000Y-106426310D01*
X100361673Y-106659699D01*
X100540302Y-106838327D01*
X100773691Y-106935000D01*
X101614250Y-106935000D01*
X101773000Y-106776250D01*
X101773000Y-105627000D01*
X102027000Y-105627000D01*
X102027000Y-106776250D01*
X102185750Y-106935000D01*
X103026309Y-106935000D01*
X103259698Y-106838327D01*
X103438327Y-106659699D01*
X103535000Y-106426310D01*
X103535000Y-105785750D01*
X103376250Y-105627000D01*
X102027000Y-105627000D01*
X101773000Y-105627000D01*
X100423750Y-105627000D01*
X100265000Y-105785750D01*
X99086987Y-105785750D01*
X99087462Y-105241828D01*
X98811394Y-104573690D01*
X100265000Y-104573690D01*
X100265000Y-105214250D01*
X100423750Y-105373000D01*
X101773000Y-105373000D01*
X101773000Y-104223750D01*
X102027000Y-104223750D01*
X102027000Y-105373000D01*
X103376250Y-105373000D01*
X103535000Y-105214250D01*
X103535000Y-104573690D01*
X103438327Y-104340301D01*
X103259698Y-104161673D01*
X103026309Y-104065000D01*
X102185750Y-104065000D01*
X102027000Y-104223750D01*
X101773000Y-104223750D01*
X101614250Y-104065000D01*
X100773691Y-104065000D01*
X100540302Y-104161673D01*
X100361673Y-104340301D01*
X100265000Y-104573690D01*
X98811394Y-104573690D01*
X98682291Y-104261239D01*
X98395827Y-103974275D01*
X98450691Y-103997000D01*
X99291250Y-103997000D01*
X99450000Y-103838250D01*
X99450000Y-102739000D01*
X99704000Y-102739000D01*
X99704000Y-103838250D01*
X99862750Y-103997000D01*
X100703309Y-103997000D01*
X100936698Y-103900327D01*
X101115327Y-103721699D01*
X101212000Y-103488310D01*
X101212000Y-102897750D01*
X101053250Y-102739000D01*
X99704000Y-102739000D01*
X99450000Y-102739000D01*
X98100750Y-102739000D01*
X97942000Y-102897750D01*
X97942000Y-103488310D01*
X97964191Y-103541884D01*
X97932707Y-103510345D01*
X96952827Y-103103464D01*
X95891828Y-103102538D01*
X94911239Y-103507709D01*
X94160345Y-104257293D01*
X93753464Y-105237173D01*
X93752538Y-106298172D01*
X94157709Y-107278761D01*
X94494555Y-107616195D01*
X94477000Y-107633750D01*
X94477000Y-108833000D01*
X94497000Y-108833000D01*
X94497000Y-109087000D01*
X94477000Y-109087000D01*
X94477000Y-109107000D01*
X94223000Y-109107000D01*
X94223000Y-109087000D01*
X93023750Y-109087000D01*
X92865000Y-109245750D01*
X92865000Y-109936309D01*
X92961673Y-110169698D01*
X93081974Y-110290000D01*
X91910000Y-110290000D01*
X91910000Y-107983691D01*
X92865000Y-107983691D01*
X92865000Y-108674250D01*
X93023750Y-108833000D01*
X94223000Y-108833000D01*
X94223000Y-107633750D01*
X94064250Y-107475000D01*
X93373690Y-107475000D01*
X93140301Y-107571673D01*
X92961673Y-107750302D01*
X92865000Y-107983691D01*
X91910000Y-107983691D01*
X91910000Y-87143958D01*
X93485647Y-87143958D01*
X93565920Y-87395259D01*
X94121279Y-87596718D01*
X94711458Y-87570315D01*
X95134080Y-87395259D01*
X95214353Y-87143958D01*
X94350000Y-86279605D01*
X93485647Y-87143958D01*
X91910000Y-87143958D01*
X91910000Y-85871279D01*
X92853282Y-85871279D01*
X92879685Y-86461458D01*
X93054741Y-86884080D01*
X93306042Y-86964353D01*
X94170395Y-86100000D01*
X94529605Y-86100000D01*
X95393958Y-86964353D01*
X95643223Y-86884730D01*
X95839946Y-87179147D01*
X96321715Y-87501054D01*
X96890000Y-87614093D01*
X97458285Y-87501054D01*
X97940054Y-87179147D01*
X98160000Y-86849974D01*
X98379946Y-87179147D01*
X98692000Y-87387654D01*
X98692000Y-96614560D01*
X98577000Y-96614560D01*
X98341683Y-96658838D01*
X98125559Y-96797910D01*
X97980569Y-97010110D01*
X97929560Y-97262000D01*
X97929560Y-98762000D01*
X97973838Y-98997317D01*
X98080759Y-99163477D01*
X97980569Y-99310110D01*
X97929560Y-99562000D01*
X97929560Y-101062000D01*
X97973838Y-101297317D01*
X98079482Y-101461492D01*
X98038673Y-101502301D01*
X97942000Y-101735690D01*
X97942000Y-102326250D01*
X98100750Y-102485000D01*
X99450000Y-102485000D01*
X99450000Y-102465000D01*
X99704000Y-102465000D01*
X99704000Y-102485000D01*
X101053250Y-102485000D01*
X101212000Y-102326250D01*
X101212000Y-101735690D01*
X101115327Y-101502301D01*
X101073366Y-101460340D01*
X101173431Y-101313890D01*
X101224440Y-101062000D01*
X101224440Y-99562000D01*
X101180162Y-99326683D01*
X101073241Y-99160523D01*
X101173431Y-99013890D01*
X101224440Y-98762000D01*
X101224440Y-97262000D01*
X101180162Y-97026683D01*
X101041090Y-96810559D01*
X100828890Y-96665569D01*
X100577000Y-96614560D01*
X100462000Y-96614560D01*
X100462000Y-95971802D01*
X104229560Y-99739363D01*
X104229560Y-102212000D01*
X104273838Y-102447317D01*
X104412910Y-102663441D01*
X104625110Y-102808431D01*
X104877000Y-102859440D01*
X105117000Y-102859440D01*
X105117000Y-104052560D01*
X104900000Y-104052560D01*
X104664683Y-104096838D01*
X104448559Y-104235910D01*
X104303569Y-104448110D01*
X104252560Y-104700000D01*
X104252560Y-106300000D01*
X104296838Y-106535317D01*
X104435910Y-106751441D01*
X104648110Y-106896431D01*
X104900000Y-106947440D01*
X106900000Y-106947440D01*
X107135317Y-106903162D01*
X107351441Y-106764090D01*
X107496431Y-106551890D01*
X107547440Y-106300000D01*
X107547440Y-104700000D01*
X107503162Y-104464683D01*
X107364090Y-104248559D01*
X107151890Y-104103569D01*
X106900000Y-104052560D01*
X106637000Y-104052560D01*
X106637000Y-102859440D01*
X106877000Y-102859440D01*
X107112317Y-102815162D01*
X107328441Y-102676090D01*
X107473431Y-102463890D01*
X107524440Y-102212000D01*
X107524440Y-101072000D01*
X108862198Y-101072000D01*
X109083195Y-101292997D01*
X109075559Y-101297910D01*
X108930569Y-101510110D01*
X108879560Y-101762000D01*
X108879560Y-103462000D01*
X108923838Y-103697317D01*
X109062910Y-103913441D01*
X109275110Y-104058431D01*
X109527000Y-104109440D01*
X110949638Y-104109440D01*
X111989599Y-105149401D01*
X112236161Y-105314148D01*
X112527000Y-105372000D01*
X116527000Y-105372000D01*
X116634903Y-105350537D01*
X116744426Y-105340234D01*
X116779226Y-105321829D01*
X116817839Y-105314148D01*
X116909308Y-105253030D01*
X117006559Y-105201596D01*
X118371076Y-104091740D01*
X119427360Y-104091740D01*
X119662677Y-104047462D01*
X119878801Y-103908390D01*
X120023791Y-103696190D01*
X120074800Y-103444300D01*
X120074800Y-103238223D01*
X121585722Y-103221953D01*
X121736239Y-103190325D01*
X121886973Y-103160342D01*
X121890665Y-103157875D01*
X121895014Y-103156961D01*
X122021960Y-103070146D01*
X122149756Y-102984756D01*
X122825073Y-102309440D01*
X123677000Y-102309440D01*
X123912317Y-102265162D01*
X124128441Y-102126090D01*
X124273431Y-101913890D01*
X124324440Y-101662000D01*
X124324440Y-101171319D01*
X124525110Y-101308431D01*
X124777000Y-101359440D01*
X126677000Y-101359440D01*
X126912317Y-101315162D01*
X127128441Y-101176090D01*
X127273431Y-100963890D01*
X127324440Y-100712000D01*
X127324440Y-99912000D01*
X127280162Y-99676683D01*
X127141090Y-99460559D01*
X126928890Y-99315569D01*
X126677000Y-99264560D01*
X126487000Y-99264560D01*
X126487000Y-98809375D01*
X126569673Y-98892192D01*
X126913201Y-99034838D01*
X127285167Y-99035162D01*
X127628943Y-98893117D01*
X127892192Y-98630327D01*
X128034838Y-98286799D01*
X128034879Y-98239923D01*
X133814802Y-92460000D01*
X134312946Y-92460000D01*
X134265560Y-92694000D01*
X134265560Y-94694000D01*
X134309838Y-94929317D01*
X134448910Y-95145441D01*
X134661110Y-95290431D01*
X134913000Y-95341440D01*
X136335638Y-95341440D01*
X138131599Y-97137401D01*
X138378161Y-97302148D01*
X138669000Y-97360000D01*
X151585198Y-97360000D01*
X151991783Y-97766585D01*
X151667093Y-97702000D01*
X151608907Y-97702000D01*
X151040622Y-97815039D01*
X150558853Y-98136946D01*
X150423177Y-98340000D01*
X150185823Y-98340000D01*
X150050147Y-98136946D01*
X149568378Y-97815039D01*
X149000093Y-97702000D01*
X148941907Y-97702000D01*
X148373622Y-97815039D01*
X147891853Y-98136946D01*
X147569946Y-98618715D01*
X147456907Y-99187000D01*
X147569946Y-99755285D01*
X147891853Y-100237054D01*
X148221026Y-100457000D01*
X147891853Y-100676946D01*
X147569946Y-101158715D01*
X147456907Y-101727000D01*
X147569946Y-102295285D01*
X147891853Y-102777054D01*
X148221026Y-102997000D01*
X147891853Y-103216946D01*
X147569946Y-103698715D01*
X147456907Y-104267000D01*
X147569946Y-104835285D01*
X147891853Y-105317054D01*
X147933452Y-105344850D01*
X147885683Y-105353838D01*
X147669559Y-105492910D01*
X147524569Y-105705110D01*
X147473560Y-105957000D01*
X147473560Y-107657000D01*
X147517838Y-107892317D01*
X147656910Y-108108441D01*
X147869110Y-108253431D01*
X148121000Y-108304440D01*
X149821000Y-108304440D01*
X150056317Y-108260162D01*
X150272441Y-108121090D01*
X150303139Y-108076162D01*
X150323910Y-108108441D01*
X150536110Y-108253431D01*
X150788000Y-108304440D01*
X152488000Y-108304440D01*
X152723317Y-108260162D01*
X152939441Y-108121090D01*
X153084431Y-107908890D01*
X153135440Y-107657000D01*
X153135440Y-106735750D01*
X169615000Y-106735750D01*
X169615000Y-107426309D01*
X169711673Y-107659698D01*
X169890301Y-107838327D01*
X170123690Y-107935000D01*
X170814250Y-107935000D01*
X170973000Y-107776250D01*
X170973000Y-106577000D01*
X169773750Y-106577000D01*
X169615000Y-106735750D01*
X153135440Y-106735750D01*
X153135440Y-105957000D01*
X153091162Y-105721683D01*
X152952090Y-105505559D01*
X152739890Y-105360569D01*
X152672459Y-105346914D01*
X152717147Y-105317054D01*
X153039054Y-104835285D01*
X153152093Y-104267000D01*
X153039054Y-103698715D01*
X152717147Y-103216946D01*
X152387974Y-102997000D01*
X152717147Y-102777054D01*
X153039054Y-102295285D01*
X153152093Y-101727000D01*
X153039054Y-101158715D01*
X152717147Y-100676946D01*
X152387974Y-100457000D01*
X152717147Y-100237054D01*
X153039054Y-99755285D01*
X153152093Y-99187000D01*
X153087508Y-98862310D01*
X158942599Y-104717401D01*
X159189161Y-104882148D01*
X159480000Y-104940000D01*
X160627046Y-104940000D01*
X160820853Y-105230054D01*
X161302622Y-105551961D01*
X161870907Y-105665000D01*
X161929093Y-105665000D01*
X162497378Y-105551961D01*
X162979147Y-105230054D01*
X163170000Y-104944422D01*
X163360853Y-105230054D01*
X163842622Y-105551961D01*
X164410907Y-105665000D01*
X164469093Y-105665000D01*
X165037378Y-105551961D01*
X165519147Y-105230054D01*
X165820000Y-104779795D01*
X166120853Y-105230054D01*
X166602622Y-105551961D01*
X167170907Y-105665000D01*
X167229093Y-105665000D01*
X167797378Y-105551961D01*
X167914517Y-105473691D01*
X169615000Y-105473691D01*
X169615000Y-106164250D01*
X169773750Y-106323000D01*
X170973000Y-106323000D01*
X170973000Y-105123750D01*
X171227000Y-105123750D01*
X171227000Y-106323000D01*
X171247000Y-106323000D01*
X171247000Y-106577000D01*
X171227000Y-106577000D01*
X171227000Y-107776250D01*
X171385750Y-107935000D01*
X172076310Y-107935000D01*
X172309699Y-107838327D01*
X172488327Y-107659698D01*
X172560597Y-107485223D01*
X172589946Y-107529147D01*
X173071715Y-107851054D01*
X173640000Y-107964093D01*
X174208285Y-107851054D01*
X174690054Y-107529147D01*
X174910000Y-107199974D01*
X175129946Y-107529147D01*
X175611715Y-107851054D01*
X176180000Y-107964093D01*
X176748285Y-107851054D01*
X177230054Y-107529147D01*
X177551961Y-107047378D01*
X177665000Y-106479093D01*
X177665000Y-106420907D01*
X177615749Y-106173305D01*
X180314674Y-106173305D01*
X180601043Y-106866372D01*
X181130839Y-107397093D01*
X181823405Y-107684672D01*
X182573305Y-107685326D01*
X183266372Y-107398957D01*
X183797093Y-106869161D01*
X184034188Y-106298172D01*
X188502538Y-106298172D01*
X188907709Y-107278761D01*
X189657293Y-108029655D01*
X190637173Y-108436536D01*
X191698172Y-108437462D01*
X192678761Y-108032291D01*
X193429655Y-107282707D01*
X193836536Y-106302827D01*
X193837462Y-105241828D01*
X193432291Y-104261239D01*
X192682707Y-103510345D01*
X191702827Y-103103464D01*
X190641828Y-103102538D01*
X189661239Y-103507709D01*
X188910345Y-104257293D01*
X188503464Y-105237173D01*
X188502538Y-106298172D01*
X184034188Y-106298172D01*
X184084672Y-106176595D01*
X184085326Y-105426695D01*
X183798957Y-104733628D01*
X183269161Y-104202907D01*
X182576595Y-103915328D01*
X181826695Y-103914674D01*
X181133628Y-104201043D01*
X180602907Y-104730839D01*
X180315328Y-105423405D01*
X180314674Y-106173305D01*
X177615749Y-106173305D01*
X177551961Y-105852622D01*
X177230054Y-105370853D01*
X176748285Y-105048946D01*
X176180000Y-104935907D01*
X175611715Y-105048946D01*
X175129946Y-105370853D01*
X174910000Y-105700026D01*
X174690054Y-105370853D01*
X174208285Y-105048946D01*
X173640000Y-104935907D01*
X173071715Y-105048946D01*
X172589946Y-105370853D01*
X172560597Y-105414777D01*
X172488327Y-105240302D01*
X172309699Y-105061673D01*
X172076310Y-104965000D01*
X171385750Y-104965000D01*
X171227000Y-105123750D01*
X170973000Y-105123750D01*
X170814250Y-104965000D01*
X170123690Y-104965000D01*
X169890301Y-105061673D01*
X169711673Y-105240302D01*
X169615000Y-105473691D01*
X167914517Y-105473691D01*
X168279147Y-105230054D01*
X168601054Y-104748285D01*
X168714093Y-104180000D01*
X168601054Y-103611715D01*
X168279147Y-103129946D01*
X167949974Y-102910000D01*
X168279147Y-102690054D01*
X168601054Y-102208285D01*
X168714093Y-101640000D01*
X168601054Y-101071715D01*
X168279147Y-100589946D01*
X168235223Y-100560597D01*
X168409698Y-100488327D01*
X168588327Y-100309699D01*
X168685000Y-100076310D01*
X168685000Y-99385750D01*
X168526250Y-99227000D01*
X167327000Y-99227000D01*
X167327000Y-99247000D01*
X167073000Y-99247000D01*
X167073000Y-99227000D01*
X165873750Y-99227000D01*
X165799395Y-99301355D01*
X165760155Y-99227000D01*
X164567000Y-99227000D01*
X164567000Y-99247000D01*
X164313000Y-99247000D01*
X164313000Y-99227000D01*
X162027000Y-99227000D01*
X162027000Y-99247000D01*
X161773000Y-99247000D01*
X161773000Y-99227000D01*
X160573750Y-99227000D01*
X160415000Y-99385750D01*
X160415000Y-100076310D01*
X160511673Y-100309699D01*
X160690302Y-100488327D01*
X160864777Y-100560597D01*
X160820853Y-100589946D01*
X160498946Y-101071715D01*
X160385907Y-101640000D01*
X160498946Y-102208285D01*
X160820853Y-102690054D01*
X161150026Y-102910000D01*
X160820853Y-103129946D01*
X160627046Y-103420000D01*
X159794802Y-103420000D01*
X154498492Y-98123690D01*
X160415000Y-98123690D01*
X160415000Y-98814250D01*
X160573750Y-98973000D01*
X161773000Y-98973000D01*
X161773000Y-97773750D01*
X162027000Y-97773750D01*
X162027000Y-98973000D01*
X164313000Y-98973000D01*
X164313000Y-97779181D01*
X164567000Y-97779181D01*
X164567000Y-98973000D01*
X165760155Y-98973000D01*
X165799395Y-98898645D01*
X165873750Y-98973000D01*
X167073000Y-98973000D01*
X167073000Y-97773750D01*
X167327000Y-97773750D01*
X167327000Y-98973000D01*
X168526250Y-98973000D01*
X168685000Y-98814250D01*
X168685000Y-98123690D01*
X168588327Y-97890301D01*
X168409698Y-97711673D01*
X168176309Y-97615000D01*
X167485750Y-97615000D01*
X167327000Y-97773750D01*
X167073000Y-97773750D01*
X166914250Y-97615000D01*
X166223691Y-97615000D01*
X165990302Y-97711673D01*
X165811673Y-97890301D01*
X165715000Y-98123690D01*
X165715000Y-98341176D01*
X165711645Y-98333076D01*
X165321358Y-97904817D01*
X164796892Y-97658514D01*
X164567000Y-97779181D01*
X164313000Y-97779181D01*
X164083108Y-97658514D01*
X163558642Y-97904817D01*
X163376930Y-98104208D01*
X163288327Y-97890301D01*
X163109698Y-97711673D01*
X162876309Y-97615000D01*
X162185750Y-97615000D01*
X162027000Y-97773750D01*
X161773000Y-97773750D01*
X161614250Y-97615000D01*
X160923691Y-97615000D01*
X160690302Y-97711673D01*
X160511673Y-97890301D01*
X160415000Y-98123690D01*
X154498492Y-98123690D01*
X150980552Y-94605750D01*
X190618000Y-94605750D01*
X190618000Y-95296310D01*
X190714673Y-95529699D01*
X190893302Y-95708327D01*
X191126691Y-95805000D01*
X191817250Y-95805000D01*
X191976000Y-95646250D01*
X191976000Y-94447000D01*
X192230000Y-94447000D01*
X192230000Y-95646250D01*
X192388750Y-95805000D01*
X193079309Y-95805000D01*
X193312698Y-95708327D01*
X193491327Y-95529699D01*
X193588000Y-95296310D01*
X193588000Y-94605750D01*
X193429250Y-94447000D01*
X192230000Y-94447000D01*
X191976000Y-94447000D01*
X190776750Y-94447000D01*
X190618000Y-94605750D01*
X150980552Y-94605750D01*
X149277401Y-92902599D01*
X149030839Y-92737852D01*
X148740000Y-92680000D01*
X145642440Y-92680000D01*
X145642440Y-92440000D01*
X145598162Y-92204683D01*
X145459090Y-91988559D01*
X145246890Y-91843569D01*
X144995000Y-91792560D01*
X143295000Y-91792560D01*
X143059683Y-91836838D01*
X142843559Y-91975910D01*
X142698569Y-92188110D01*
X142647560Y-92440000D01*
X142647560Y-94440000D01*
X142691838Y-94675317D01*
X142830910Y-94891441D01*
X143043110Y-95036431D01*
X143295000Y-95087440D01*
X144995000Y-95087440D01*
X145230317Y-95043162D01*
X145446441Y-94904090D01*
X145591431Y-94691890D01*
X145642440Y-94440000D01*
X145642440Y-94200000D01*
X148425198Y-94200000D01*
X150065198Y-95840000D01*
X138983802Y-95840000D01*
X137260440Y-94116638D01*
X137260440Y-92694000D01*
X137216410Y-92460000D01*
X137300000Y-92460000D01*
X137590839Y-92402148D01*
X137837401Y-92237401D01*
X139874802Y-90200000D01*
X142647560Y-90200000D01*
X142647560Y-90440000D01*
X142691838Y-90675317D01*
X142830910Y-90891441D01*
X143043110Y-91036431D01*
X143295000Y-91087440D01*
X144717638Y-91087440D01*
X144967599Y-91337401D01*
X145214160Y-91502148D01*
X145262414Y-91511746D01*
X145505000Y-91560000D01*
X147202560Y-91560000D01*
X147202560Y-91650000D01*
X147246838Y-91885317D01*
X147385910Y-92101441D01*
X147598110Y-92246431D01*
X147850000Y-92297440D01*
X149550000Y-92297440D01*
X149785317Y-92253162D01*
X150001441Y-92114090D01*
X150146431Y-91901890D01*
X150149081Y-91888803D01*
X150285910Y-92101441D01*
X150498110Y-92246431D01*
X150750000Y-92297440D01*
X152450000Y-92297440D01*
X152685317Y-92253162D01*
X152901441Y-92114090D01*
X153046431Y-91901890D01*
X153097440Y-91650000D01*
X153097440Y-89950000D01*
X153053162Y-89714683D01*
X152914090Y-89498559D01*
X152701890Y-89353569D01*
X152634459Y-89339914D01*
X152679147Y-89310054D01*
X153001054Y-88828285D01*
X153114093Y-88260000D01*
X153001054Y-87691715D01*
X152679147Y-87209946D01*
X152197378Y-86888039D01*
X151629093Y-86775000D01*
X151570907Y-86775000D01*
X151002622Y-86888039D01*
X150520853Y-87209946D01*
X150327046Y-87500000D01*
X149972954Y-87500000D01*
X149779147Y-87209946D01*
X149297378Y-86888039D01*
X148729093Y-86775000D01*
X148670907Y-86775000D01*
X148102622Y-86888039D01*
X147620853Y-87209946D01*
X147298946Y-87691715D01*
X147185907Y-88260000D01*
X147298946Y-88828285D01*
X147620853Y-89310054D01*
X147662452Y-89337850D01*
X147614683Y-89346838D01*
X147398559Y-89485910D01*
X147253569Y-89698110D01*
X147202560Y-89950000D01*
X147202560Y-90040000D01*
X145819802Y-90040000D01*
X145642440Y-89862638D01*
X145642440Y-88440000D01*
X145598162Y-88204683D01*
X145459090Y-87988559D01*
X145246890Y-87843569D01*
X144995000Y-87792560D01*
X143295000Y-87792560D01*
X143059683Y-87836838D01*
X142843559Y-87975910D01*
X142698569Y-88188110D01*
X142647560Y-88440000D01*
X142647560Y-88680000D01*
X139560000Y-88680000D01*
X139269161Y-88737852D01*
X139022599Y-88902599D01*
X137260440Y-90664758D01*
X137260440Y-89271362D01*
X138067401Y-88464401D01*
X138232148Y-88217840D01*
X138290000Y-87927000D01*
X138290000Y-87372954D01*
X138580054Y-87179147D01*
X138901961Y-86697378D01*
X139015000Y-86129093D01*
X139015000Y-86070907D01*
X138901961Y-85502622D01*
X138580054Y-85020853D01*
X138098285Y-84698946D01*
X137530000Y-84585907D01*
X136961715Y-84698946D01*
X136479946Y-85020853D01*
X136260000Y-85350026D01*
X136205837Y-85268965D01*
X137214802Y-84260000D01*
X183508198Y-84260000D01*
X190661790Y-91413592D01*
X190588907Y-91780000D01*
X190701946Y-92348285D01*
X191023853Y-92830054D01*
X191067777Y-92859403D01*
X190893302Y-92931673D01*
X190714673Y-93110301D01*
X190618000Y-93343690D01*
X190618000Y-94034250D01*
X190776750Y-94193000D01*
X191976000Y-94193000D01*
X191976000Y-94173000D01*
X192230000Y-94173000D01*
X192230000Y-94193000D01*
X193429250Y-94193000D01*
X193588000Y-94034250D01*
X193588000Y-93343690D01*
X193491327Y-93110301D01*
X193312698Y-92931673D01*
X193138223Y-92859403D01*
X193182147Y-92830054D01*
X193504054Y-92348285D01*
X193617093Y-91780000D01*
X193504054Y-91211715D01*
X193182147Y-90729946D01*
X192852974Y-90510000D01*
X193182147Y-90290054D01*
X193504054Y-89808285D01*
X193617093Y-89240000D01*
X193504054Y-88671715D01*
X193182147Y-88189946D01*
X192700378Y-87868039D01*
X192132093Y-87755000D01*
X192073907Y-87755000D01*
X191505622Y-87868039D01*
X191023853Y-88189946D01*
X190701946Y-88671715D01*
X190597019Y-89199217D01*
X184360401Y-82962599D01*
X184113839Y-82797852D01*
X183823000Y-82740000D01*
X136900000Y-82740000D01*
X136609161Y-82797852D01*
X136362599Y-82962599D01*
X134677039Y-84648159D01*
X134421715Y-84698946D01*
X133939946Y-85020853D01*
X133720000Y-85350026D01*
X133500054Y-85020853D01*
X133018285Y-84698946D01*
X132450000Y-84585907D01*
X131881715Y-84698946D01*
X131399946Y-85020853D01*
X131180000Y-85350026D01*
X130960054Y-85020853D01*
X130478285Y-84698946D01*
X129910000Y-84585907D01*
X129341715Y-84698946D01*
X128859946Y-85020853D01*
X128640000Y-85350026D01*
X128420054Y-85020853D01*
X127938285Y-84698946D01*
X127370000Y-84585907D01*
X126801715Y-84698946D01*
X126319946Y-85020853D01*
X126100000Y-85350026D01*
X125880054Y-85020853D01*
X125398285Y-84698946D01*
X124830000Y-84585907D01*
X124261715Y-84698946D01*
X123779946Y-85020853D01*
X123560000Y-85350026D01*
X123340054Y-85020853D01*
X122858285Y-84698946D01*
X122290000Y-84585907D01*
X121721715Y-84698946D01*
X121239946Y-85020853D01*
X121020000Y-85350026D01*
X120800054Y-85020853D01*
X120318285Y-84698946D01*
X119750000Y-84585907D01*
X119260000Y-84683374D01*
X119260000Y-82962463D01*
X119292192Y-82930327D01*
X119434838Y-82586799D01*
X119435162Y-82214833D01*
X119293117Y-81871057D01*
X119030327Y-81607808D01*
X118686799Y-81465162D01*
X118314833Y-81464838D01*
X117971057Y-81606883D01*
X117707808Y-81869673D01*
X117565162Y-82213201D01*
X117564838Y-82585167D01*
X117706883Y-82928943D01*
X117740000Y-82962118D01*
X117740000Y-84691331D01*
X117210000Y-84585907D01*
X116641715Y-84698946D01*
X116159946Y-85020853D01*
X115940000Y-85350026D01*
X115720054Y-85020853D01*
X115238285Y-84698946D01*
X114670000Y-84585907D01*
X114101715Y-84698946D01*
X113619946Y-85020853D01*
X113400000Y-85350026D01*
X113180054Y-85020853D01*
X112698285Y-84698946D01*
X112130000Y-84585907D01*
X111561715Y-84698946D01*
X111079946Y-85020853D01*
X110860000Y-85350026D01*
X110640054Y-85020853D01*
X110158285Y-84698946D01*
X109590000Y-84585907D01*
X109021715Y-84698946D01*
X108539946Y-85020853D01*
X108320000Y-85350026D01*
X108100054Y-85020853D01*
X107618285Y-84698946D01*
X107050000Y-84585907D01*
X106560000Y-84683374D01*
X106560000Y-83062463D01*
X106592192Y-83030327D01*
X106734838Y-82686799D01*
X106735162Y-82314833D01*
X106593117Y-81971057D01*
X106330327Y-81707808D01*
X105986799Y-81565162D01*
X105614833Y-81564838D01*
X105271057Y-81706883D01*
X105007808Y-81969673D01*
X104865162Y-82313201D01*
X104864838Y-82685167D01*
X105006883Y-83028943D01*
X105040000Y-83062118D01*
X105040000Y-84691331D01*
X104510000Y-84585907D01*
X103941715Y-84698946D01*
X103459946Y-85020853D01*
X103240000Y-85350026D01*
X103020054Y-85020853D01*
X102538285Y-84698946D01*
X101970000Y-84585907D01*
X101460000Y-84687352D01*
X101460000Y-78421604D01*
X101528943Y-78393117D01*
X101749138Y-78173305D01*
X180314674Y-78173305D01*
X180601043Y-78866372D01*
X181130839Y-79397093D01*
X181823405Y-79684672D01*
X182573305Y-79685326D01*
X183266372Y-79398957D01*
X183797093Y-78869161D01*
X184034188Y-78298172D01*
X188512538Y-78298172D01*
X188917709Y-79278761D01*
X189667293Y-80029655D01*
X190647173Y-80436536D01*
X191708172Y-80437462D01*
X192688761Y-80032291D01*
X193439655Y-79282707D01*
X193846536Y-78302827D01*
X193847462Y-77241828D01*
X193442291Y-76261239D01*
X192692707Y-75510345D01*
X191712827Y-75103464D01*
X190651828Y-75102538D01*
X189671239Y-75507709D01*
X188920345Y-76257293D01*
X188513464Y-77237173D01*
X188512538Y-78298172D01*
X184034188Y-78298172D01*
X184084672Y-78176595D01*
X184085326Y-77426695D01*
X183798957Y-76733628D01*
X183269161Y-76202907D01*
X182576595Y-75915328D01*
X181826695Y-75914674D01*
X181133628Y-76201043D01*
X180602907Y-76730839D01*
X180315328Y-77423405D01*
X180314674Y-78173305D01*
X101749138Y-78173305D01*
X101792192Y-78130327D01*
X101934838Y-77786799D01*
X101935162Y-77414833D01*
X101793117Y-77071057D01*
X101530327Y-76807808D01*
X101186799Y-76665162D01*
X100814833Y-76664838D01*
X100471057Y-76806883D01*
X100207808Y-77069673D01*
X100065162Y-77413201D01*
X100065079Y-77508548D01*
X99997852Y-77609161D01*
X99940000Y-77900000D01*
X99940000Y-84687352D01*
X99430000Y-84585907D01*
X98861715Y-84698946D01*
X98379946Y-85020853D01*
X98160000Y-85350026D01*
X97940054Y-85020853D01*
X97458285Y-84698946D01*
X96890000Y-84585907D01*
X96321715Y-84698946D01*
X95839946Y-85020853D01*
X95643223Y-85315270D01*
X95393958Y-85235647D01*
X94529605Y-86100000D01*
X94170395Y-86100000D01*
X93306042Y-85235647D01*
X93054741Y-85315920D01*
X92853282Y-85871279D01*
X91910000Y-85871279D01*
X91910000Y-85056042D01*
X93485647Y-85056042D01*
X94350000Y-85920395D01*
X95214353Y-85056042D01*
X95134080Y-84804741D01*
X94578721Y-84603282D01*
X93988542Y-84629685D01*
X93565920Y-84804741D01*
X93485647Y-85056042D01*
X91910000Y-85056042D01*
X91910000Y-78298172D01*
X93512538Y-78298172D01*
X93917709Y-79278761D01*
X94667293Y-80029655D01*
X95647173Y-80436536D01*
X96708172Y-80437462D01*
X97688761Y-80032291D01*
X98439655Y-79282707D01*
X98846536Y-78302827D01*
X98847462Y-77241828D01*
X98442291Y-76261239D01*
X97692707Y-75510345D01*
X96712827Y-75103464D01*
X95651828Y-75102538D01*
X94671239Y-75507709D01*
X93920345Y-76257293D01*
X93513464Y-77237173D01*
X93512538Y-78298172D01*
X91910000Y-78298172D01*
X91910000Y-73210000D01*
X195490000Y-73210000D01*
X195490000Y-110290000D01*
M02*
