G04 #@! TF.FileFunction,Legend,Bot*
%FSLAX46Y46*%
G04 Gerber Fmt 4.6, Leading zero omitted, Abs format (unit mm)*
G04 Created by KiCad (PCBNEW 4.0.7) date 04/05/18 15:18:43*
%MOMM*%
%LPD*%
G01*
G04 APERTURE LIST*
%ADD10C,0.100000*%
%ADD11C,0.300000*%
%ADD12C,0.150000*%
%ADD13C,0.120000*%
G04 APERTURE END LIST*
D10*
D11*
X157121428Y-89132143D02*
X156907142Y-89203571D01*
X156549999Y-89203571D01*
X156407142Y-89132143D01*
X156335713Y-89060714D01*
X156264285Y-88917857D01*
X156264285Y-88775000D01*
X156335713Y-88632143D01*
X156407142Y-88560714D01*
X156549999Y-88489286D01*
X156835713Y-88417857D01*
X156978571Y-88346429D01*
X157049999Y-88275000D01*
X157121428Y-88132143D01*
X157121428Y-87989286D01*
X157049999Y-87846429D01*
X156978571Y-87775000D01*
X156835713Y-87703571D01*
X156478571Y-87703571D01*
X156264285Y-87775000D01*
X155621428Y-89203571D02*
X155621428Y-87703571D01*
X155264285Y-87703571D01*
X155050000Y-87775000D01*
X154907142Y-87917857D01*
X154835714Y-88060714D01*
X154764285Y-88346429D01*
X154764285Y-88560714D01*
X154835714Y-88846429D01*
X154907142Y-88989286D01*
X155050000Y-89132143D01*
X155264285Y-89203571D01*
X155621428Y-89203571D01*
X154192857Y-88775000D02*
X153478571Y-88775000D01*
X154335714Y-89203571D02*
X153835714Y-87703571D01*
X153335714Y-89203571D01*
X157085714Y-91682143D02*
X156871428Y-91753571D01*
X156514285Y-91753571D01*
X156371428Y-91682143D01*
X156299999Y-91610714D01*
X156228571Y-91467857D01*
X156228571Y-91325000D01*
X156299999Y-91182143D01*
X156371428Y-91110714D01*
X156514285Y-91039286D01*
X156799999Y-90967857D01*
X156942857Y-90896429D01*
X157014285Y-90825000D01*
X157085714Y-90682143D01*
X157085714Y-90539286D01*
X157014285Y-90396429D01*
X156942857Y-90325000D01*
X156799999Y-90253571D01*
X156442857Y-90253571D01*
X156228571Y-90325000D01*
X154728571Y-91610714D02*
X154800000Y-91682143D01*
X155014286Y-91753571D01*
X155157143Y-91753571D01*
X155371428Y-91682143D01*
X155514286Y-91539286D01*
X155585714Y-91396429D01*
X155657143Y-91110714D01*
X155657143Y-90896429D01*
X155585714Y-90610714D01*
X155514286Y-90467857D01*
X155371428Y-90325000D01*
X155157143Y-90253571D01*
X155014286Y-90253571D01*
X154800000Y-90325000D01*
X154728571Y-90396429D01*
X153371428Y-91753571D02*
X154085714Y-91753571D01*
X154085714Y-90253571D01*
D12*
X147000000Y-107557142D02*
X147047619Y-107652380D01*
X147047619Y-107795237D01*
X147000000Y-107938095D01*
X146904762Y-108033333D01*
X146809524Y-108080952D01*
X146619048Y-108128571D01*
X146476190Y-108128571D01*
X146285714Y-108080952D01*
X146190476Y-108033333D01*
X146095238Y-107938095D01*
X146047619Y-107795237D01*
X146047619Y-107699999D01*
X146095238Y-107557142D01*
X146142857Y-107509523D01*
X146476190Y-107509523D01*
X146476190Y-107699999D01*
X146047619Y-107080952D02*
X147047619Y-107080952D01*
X147047619Y-106699999D01*
X147000000Y-106604761D01*
X146952381Y-106557142D01*
X146857143Y-106509523D01*
X146714286Y-106509523D01*
X146619048Y-106557142D01*
X146571429Y-106604761D01*
X146523810Y-106699999D01*
X146523810Y-107080952D01*
X146047619Y-106080952D02*
X147047619Y-106080952D01*
X147047619Y-105414286D02*
X147047619Y-105223809D01*
X147000000Y-105128571D01*
X146904762Y-105033333D01*
X146714286Y-104985714D01*
X146380952Y-104985714D01*
X146190476Y-105033333D01*
X146095238Y-105128571D01*
X146047619Y-105223809D01*
X146047619Y-105414286D01*
X146095238Y-105509524D01*
X146190476Y-105604762D01*
X146380952Y-105652381D01*
X146714286Y-105652381D01*
X146904762Y-105604762D01*
X147000000Y-105509524D01*
X147047619Y-105414286D01*
X146095238Y-104604762D02*
X146047619Y-104509524D01*
X146047619Y-104319048D01*
X146095238Y-104223809D01*
X146190476Y-104176190D01*
X146238095Y-104176190D01*
X146333333Y-104223809D01*
X146380952Y-104319048D01*
X146380952Y-104461905D01*
X146428571Y-104557143D01*
X146523810Y-104604762D01*
X146571429Y-104604762D01*
X146666667Y-104557143D01*
X146714286Y-104461905D01*
X146714286Y-104319048D01*
X146666667Y-104223809D01*
X147095238Y-103033333D02*
X145809524Y-103890476D01*
X146333333Y-102747619D02*
X146333333Y-102271428D01*
X146047619Y-102842857D02*
X147047619Y-102509524D01*
X146047619Y-102176190D01*
X146047619Y-101842857D02*
X147047619Y-101842857D01*
X147047619Y-101604762D01*
X147000000Y-101461904D01*
X146904762Y-101366666D01*
X146809524Y-101319047D01*
X146619048Y-101271428D01*
X146476190Y-101271428D01*
X146285714Y-101319047D01*
X146190476Y-101366666D01*
X146095238Y-101461904D01*
X146047619Y-101604762D01*
X146047619Y-101842857D01*
X146142857Y-100271428D02*
X146095238Y-100319047D01*
X146047619Y-100461904D01*
X146047619Y-100557142D01*
X146095238Y-100700000D01*
X146190476Y-100795238D01*
X146285714Y-100842857D01*
X146476190Y-100890476D01*
X146619048Y-100890476D01*
X146809524Y-100842857D01*
X146904762Y-100795238D01*
X147000000Y-100700000D01*
X147047619Y-100557142D01*
X147047619Y-100461904D01*
X147000000Y-100319047D01*
X146952381Y-100271428D01*
D11*
X154199999Y-98353571D02*
X153271428Y-98353571D01*
X153771428Y-98925000D01*
X153557142Y-98925000D01*
X153414285Y-98996429D01*
X153342856Y-99067857D01*
X153271428Y-99210714D01*
X153271428Y-99567857D01*
X153342856Y-99710714D01*
X153414285Y-99782143D01*
X153557142Y-99853571D01*
X153985714Y-99853571D01*
X154128571Y-99782143D01*
X154199999Y-99710714D01*
X154128571Y-101046429D02*
X154057142Y-100975000D01*
X153914285Y-100903571D01*
X153557142Y-100903571D01*
X153414285Y-100975000D01*
X153342856Y-101046429D01*
X153271428Y-101189286D01*
X153271428Y-101332143D01*
X153342856Y-101546429D01*
X154199999Y-102403571D01*
X153271428Y-102403571D01*
X153271428Y-104953571D02*
X154128571Y-104953571D01*
X153699999Y-104953571D02*
X153699999Y-103453571D01*
X153842856Y-103667857D01*
X153985714Y-103810714D01*
X154128571Y-103882143D01*
X153771428Y-106003571D02*
X153628571Y-106003571D01*
X153485714Y-106075000D01*
X153414285Y-106146429D01*
X153342856Y-106289286D01*
X153271428Y-106575000D01*
X153271428Y-106932143D01*
X153342856Y-107217857D01*
X153414285Y-107360714D01*
X153485714Y-107432143D01*
X153628571Y-107503571D01*
X153771428Y-107503571D01*
X153914285Y-107432143D01*
X153985714Y-107360714D01*
X154057142Y-107217857D01*
X154128571Y-106932143D01*
X154128571Y-106575000D01*
X154057142Y-106289286D01*
X153985714Y-106146429D01*
X153914285Y-106075000D01*
X153771428Y-106003571D01*
X159142857Y-98600000D02*
X159285714Y-98528571D01*
X159500000Y-98528571D01*
X159714285Y-98600000D01*
X159857143Y-98742857D01*
X159928571Y-98885714D01*
X160000000Y-99171429D01*
X160000000Y-99385714D01*
X159928571Y-99671429D01*
X159857143Y-99814286D01*
X159714285Y-99957143D01*
X159500000Y-100028571D01*
X159357143Y-100028571D01*
X159142857Y-99957143D01*
X159071428Y-99885714D01*
X159071428Y-99385714D01*
X159357143Y-99385714D01*
X158428571Y-100028571D02*
X158428571Y-98528571D01*
X157571428Y-100028571D01*
X157571428Y-98528571D01*
X156857142Y-100028571D02*
X156857142Y-98528571D01*
X156499999Y-98528571D01*
X156285714Y-98600000D01*
X156142856Y-98742857D01*
X156071428Y-98885714D01*
X155999999Y-99171429D01*
X155999999Y-99385714D01*
X156071428Y-99671429D01*
X156142856Y-99814286D01*
X156285714Y-99957143D01*
X156499999Y-100028571D01*
X156857142Y-100028571D01*
X158285713Y-101078571D02*
X158999999Y-101078571D01*
X159071428Y-101792857D01*
X158999999Y-101721429D01*
X158857142Y-101650000D01*
X158499999Y-101650000D01*
X158357142Y-101721429D01*
X158285713Y-101792857D01*
X158214285Y-101935714D01*
X158214285Y-102292857D01*
X158285713Y-102435714D01*
X158357142Y-102507143D01*
X158499999Y-102578571D01*
X158857142Y-102578571D01*
X158999999Y-102507143D01*
X159071428Y-102435714D01*
X157785714Y-101078571D02*
X157285714Y-102578571D01*
X156785714Y-101078571D01*
X159857142Y-103628571D02*
X158928571Y-103628571D01*
X159428571Y-104200000D01*
X159214285Y-104200000D01*
X159071428Y-104271429D01*
X158999999Y-104342857D01*
X158928571Y-104485714D01*
X158928571Y-104842857D01*
X158999999Y-104985714D01*
X159071428Y-105057143D01*
X159214285Y-105128571D01*
X159642857Y-105128571D01*
X159785714Y-105057143D01*
X159857142Y-104985714D01*
X158500000Y-103628571D02*
X158000000Y-105128571D01*
X157500000Y-103628571D01*
X157142857Y-103628571D02*
X156214286Y-103628571D01*
X156714286Y-104200000D01*
X156500000Y-104200000D01*
X156357143Y-104271429D01*
X156285714Y-104342857D01*
X156214286Y-104485714D01*
X156214286Y-104842857D01*
X156285714Y-104985714D01*
X156357143Y-105057143D01*
X156500000Y-105128571D01*
X156928572Y-105128571D01*
X157071429Y-105057143D01*
X157142857Y-104985714D01*
X98878571Y-103942858D02*
X98878571Y-104871429D01*
X99450000Y-104371429D01*
X99450000Y-104585715D01*
X99521429Y-104728572D01*
X99592857Y-104800001D01*
X99735714Y-104871429D01*
X100092857Y-104871429D01*
X100235714Y-104800001D01*
X100307143Y-104728572D01*
X100378571Y-104585715D01*
X100378571Y-104157143D01*
X100307143Y-104014286D01*
X100235714Y-103942858D01*
X98878571Y-105300000D02*
X100378571Y-105800000D01*
X98878571Y-106300000D01*
X98878571Y-106657143D02*
X98878571Y-107585714D01*
X99450000Y-107085714D01*
X99450000Y-107300000D01*
X99521429Y-107442857D01*
X99592857Y-107514286D01*
X99735714Y-107585714D01*
X100092857Y-107585714D01*
X100235714Y-107514286D01*
X100307143Y-107442857D01*
X100378571Y-107300000D01*
X100378571Y-106871428D01*
X100307143Y-106728571D01*
X100235714Y-106657143D01*
X93800000Y-99371428D02*
X93728571Y-99228571D01*
X93728571Y-99014285D01*
X93800000Y-98800000D01*
X93942857Y-98657142D01*
X94085714Y-98585714D01*
X94371429Y-98514285D01*
X94585714Y-98514285D01*
X94871429Y-98585714D01*
X95014286Y-98657142D01*
X95157143Y-98800000D01*
X95228571Y-99014285D01*
X95228571Y-99157142D01*
X95157143Y-99371428D01*
X95085714Y-99442857D01*
X94585714Y-99442857D01*
X94585714Y-99157142D01*
X95228571Y-100085714D02*
X93728571Y-100085714D01*
X95228571Y-100942857D01*
X93728571Y-100942857D01*
X95228571Y-101657143D02*
X93728571Y-101657143D01*
X93728571Y-102014286D01*
X93800000Y-102228571D01*
X93942857Y-102371429D01*
X94085714Y-102442857D01*
X94371429Y-102514286D01*
X94585714Y-102514286D01*
X94871429Y-102442857D01*
X95014286Y-102371429D01*
X95157143Y-102228571D01*
X95228571Y-102014286D01*
X95228571Y-101657143D01*
X96278571Y-101157144D02*
X96278571Y-100442858D01*
X96992857Y-100371429D01*
X96921429Y-100442858D01*
X96850000Y-100585715D01*
X96850000Y-100942858D01*
X96921429Y-101085715D01*
X96992857Y-101157144D01*
X97135714Y-101228572D01*
X97492857Y-101228572D01*
X97635714Y-101157144D01*
X97707143Y-101085715D01*
X97778571Y-100942858D01*
X97778571Y-100585715D01*
X97707143Y-100442858D01*
X97635714Y-100371429D01*
X96278571Y-101657143D02*
X97778571Y-102157143D01*
X96278571Y-102657143D01*
X138207143Y-80371429D02*
X138278571Y-80585715D01*
X138278571Y-80942858D01*
X138207143Y-81085715D01*
X138135714Y-81157144D01*
X137992857Y-81228572D01*
X137850000Y-81228572D01*
X137707143Y-81157144D01*
X137635714Y-81085715D01*
X137564286Y-80942858D01*
X137492857Y-80657144D01*
X137421429Y-80514286D01*
X137350000Y-80442858D01*
X137207143Y-80371429D01*
X137064286Y-80371429D01*
X136921429Y-80442858D01*
X136850000Y-80514286D01*
X136778571Y-80657144D01*
X136778571Y-81014286D01*
X136850000Y-81228572D01*
X138278571Y-81871429D02*
X136778571Y-81871429D01*
X136778571Y-82228572D01*
X136850000Y-82442857D01*
X136992857Y-82585715D01*
X137135714Y-82657143D01*
X137421429Y-82728572D01*
X137635714Y-82728572D01*
X137921429Y-82657143D01*
X138064286Y-82585715D01*
X138207143Y-82442857D01*
X138278571Y-82228572D01*
X138278571Y-81871429D01*
X137850000Y-83300000D02*
X137850000Y-84014286D01*
X138278571Y-83157143D02*
X136778571Y-83657143D01*
X138278571Y-84157143D01*
X112842857Y-105892857D02*
X113057143Y-105821429D01*
X113414286Y-105821429D01*
X113557143Y-105892857D01*
X113628572Y-105964286D01*
X113700000Y-106107143D01*
X113700000Y-106250000D01*
X113628572Y-106392857D01*
X113557143Y-106464286D01*
X113414286Y-106535714D01*
X113128572Y-106607143D01*
X112985714Y-106678571D01*
X112914286Y-106750000D01*
X112842857Y-106892857D01*
X112842857Y-107035714D01*
X112914286Y-107178571D01*
X112985714Y-107250000D01*
X113128572Y-107321429D01*
X113485714Y-107321429D01*
X113700000Y-107250000D01*
X115200000Y-105964286D02*
X115128571Y-105892857D01*
X114914285Y-105821429D01*
X114771428Y-105821429D01*
X114557143Y-105892857D01*
X114414285Y-106035714D01*
X114342857Y-106178571D01*
X114271428Y-106464286D01*
X114271428Y-106678571D01*
X114342857Y-106964286D01*
X114414285Y-107107143D01*
X114557143Y-107250000D01*
X114771428Y-107321429D01*
X114914285Y-107321429D01*
X115128571Y-107250000D01*
X115200000Y-107178571D01*
X116557143Y-105821429D02*
X115842857Y-105821429D01*
X115842857Y-107321429D01*
X135778571Y-81142857D02*
X134278571Y-81142857D01*
X134278571Y-81714285D01*
X134350000Y-81857143D01*
X134421429Y-81928571D01*
X134564286Y-82000000D01*
X134778571Y-82000000D01*
X134921429Y-81928571D01*
X134992857Y-81857143D01*
X135064286Y-81714285D01*
X135064286Y-81142857D01*
X135778571Y-82642857D02*
X134278571Y-82642857D01*
X135778571Y-84214286D02*
X135064286Y-83714286D01*
X135778571Y-83357143D02*
X134278571Y-83357143D01*
X134278571Y-83928571D01*
X134350000Y-84071429D01*
X134421429Y-84142857D01*
X134564286Y-84214286D01*
X134778571Y-84214286D01*
X134921429Y-84142857D01*
X134992857Y-84071429D01*
X135064286Y-83928571D01*
X135064286Y-83357143D01*
X93600000Y-88742857D02*
X93528571Y-88600000D01*
X93528571Y-88385714D01*
X93600000Y-88171429D01*
X93742857Y-88028571D01*
X93885714Y-87957143D01*
X94171429Y-87885714D01*
X94385714Y-87885714D01*
X94671429Y-87957143D01*
X94814286Y-88028571D01*
X94957143Y-88171429D01*
X95028571Y-88385714D01*
X95028571Y-88528571D01*
X94957143Y-88742857D01*
X94885714Y-88814286D01*
X94385714Y-88814286D01*
X94385714Y-88528571D01*
X95028571Y-89457143D02*
X93528571Y-89457143D01*
X95028571Y-90314286D01*
X93528571Y-90314286D01*
X95028571Y-91028572D02*
X93528571Y-91028572D01*
X93528571Y-91385715D01*
X93600000Y-91600000D01*
X93742857Y-91742858D01*
X93885714Y-91814286D01*
X94171429Y-91885715D01*
X94385714Y-91885715D01*
X94671429Y-91814286D01*
X94814286Y-91742858D01*
X94957143Y-91600000D01*
X95028571Y-91385715D01*
X95028571Y-91028572D01*
X96078571Y-88671429D02*
X96078571Y-87957143D01*
X96792857Y-87885714D01*
X96721429Y-87957143D01*
X96650000Y-88100000D01*
X96650000Y-88457143D01*
X96721429Y-88600000D01*
X96792857Y-88671429D01*
X96935714Y-88742857D01*
X97292857Y-88742857D01*
X97435714Y-88671429D01*
X97507143Y-88600000D01*
X97578571Y-88457143D01*
X97578571Y-88100000D01*
X97507143Y-87957143D01*
X97435714Y-87885714D01*
X96078571Y-89171428D02*
X97578571Y-89671428D01*
X96078571Y-90171428D01*
X98628571Y-87814286D02*
X98628571Y-88742857D01*
X99200000Y-88242857D01*
X99200000Y-88457143D01*
X99271429Y-88600000D01*
X99342857Y-88671429D01*
X99485714Y-88742857D01*
X99842857Y-88742857D01*
X99985714Y-88671429D01*
X100057143Y-88600000D01*
X100128571Y-88457143D01*
X100128571Y-88028571D01*
X100057143Y-87885714D01*
X99985714Y-87814286D01*
X98628571Y-89171428D02*
X100128571Y-89671428D01*
X98628571Y-90171428D01*
X98628571Y-90528571D02*
X98628571Y-91457142D01*
X99200000Y-90957142D01*
X99200000Y-91171428D01*
X99271429Y-91314285D01*
X99342857Y-91385714D01*
X99485714Y-91457142D01*
X99842857Y-91457142D01*
X99985714Y-91385714D01*
X100057143Y-91314285D01*
X100128571Y-91171428D01*
X100128571Y-90742856D01*
X100057143Y-90599999D01*
X99985714Y-90528571D01*
X102250000Y-87885714D02*
X102250000Y-88600000D01*
X102678571Y-87742857D02*
X101178571Y-88242857D01*
X102678571Y-88742857D01*
X102678571Y-89242857D02*
X101178571Y-89242857D01*
X101178571Y-89600000D01*
X101250000Y-89814285D01*
X101392857Y-89957143D01*
X101535714Y-90028571D01*
X101821429Y-90100000D01*
X102035714Y-90100000D01*
X102321429Y-90028571D01*
X102464286Y-89957143D01*
X102607143Y-89814285D01*
X102678571Y-89600000D01*
X102678571Y-89242857D01*
X102535714Y-91600000D02*
X102607143Y-91528571D01*
X102678571Y-91314285D01*
X102678571Y-91171428D01*
X102607143Y-90957143D01*
X102464286Y-90814285D01*
X102321429Y-90742857D01*
X102035714Y-90671428D01*
X101821429Y-90671428D01*
X101535714Y-90742857D01*
X101392857Y-90814285D01*
X101250000Y-90957143D01*
X101178571Y-91171428D01*
X101178571Y-91314285D01*
X101250000Y-91528571D01*
X101321429Y-91600000D01*
X101178571Y-92528571D02*
X101178571Y-92671428D01*
X101250000Y-92814285D01*
X101321429Y-92885714D01*
X101464286Y-92957143D01*
X101750000Y-93028571D01*
X102107143Y-93028571D01*
X102392857Y-92957143D01*
X102535714Y-92885714D01*
X102607143Y-92814285D01*
X102678571Y-92671428D01*
X102678571Y-92528571D01*
X102607143Y-92385714D01*
X102535714Y-92314285D01*
X102392857Y-92242857D01*
X102107143Y-92171428D01*
X101750000Y-92171428D01*
X101464286Y-92242857D01*
X101321429Y-92314285D01*
X101250000Y-92385714D01*
X101178571Y-92528571D01*
X104800000Y-87885714D02*
X104800000Y-88600000D01*
X105228571Y-87742857D02*
X103728571Y-88242857D01*
X105228571Y-88742857D01*
X105228571Y-89242857D02*
X103728571Y-89242857D01*
X103728571Y-89600000D01*
X103800000Y-89814285D01*
X103942857Y-89957143D01*
X104085714Y-90028571D01*
X104371429Y-90100000D01*
X104585714Y-90100000D01*
X104871429Y-90028571D01*
X105014286Y-89957143D01*
X105157143Y-89814285D01*
X105228571Y-89600000D01*
X105228571Y-89242857D01*
X105085714Y-91600000D02*
X105157143Y-91528571D01*
X105228571Y-91314285D01*
X105228571Y-91171428D01*
X105157143Y-90957143D01*
X105014286Y-90814285D01*
X104871429Y-90742857D01*
X104585714Y-90671428D01*
X104371429Y-90671428D01*
X104085714Y-90742857D01*
X103942857Y-90814285D01*
X103800000Y-90957143D01*
X103728571Y-91171428D01*
X103728571Y-91314285D01*
X103800000Y-91528571D01*
X103871429Y-91600000D01*
X105228571Y-93028571D02*
X105228571Y-92171428D01*
X105228571Y-92600000D02*
X103728571Y-92600000D01*
X103942857Y-92457143D01*
X104085714Y-92314285D01*
X104157143Y-92171428D01*
X107350000Y-87885714D02*
X107350000Y-88600000D01*
X107778571Y-87742857D02*
X106278571Y-88242857D01*
X107778571Y-88742857D01*
X107778571Y-89242857D02*
X106278571Y-89242857D01*
X106278571Y-89600000D01*
X106350000Y-89814285D01*
X106492857Y-89957143D01*
X106635714Y-90028571D01*
X106921429Y-90100000D01*
X107135714Y-90100000D01*
X107421429Y-90028571D01*
X107564286Y-89957143D01*
X107707143Y-89814285D01*
X107778571Y-89600000D01*
X107778571Y-89242857D01*
X107635714Y-91600000D02*
X107707143Y-91528571D01*
X107778571Y-91314285D01*
X107778571Y-91171428D01*
X107707143Y-90957143D01*
X107564286Y-90814285D01*
X107421429Y-90742857D01*
X107135714Y-90671428D01*
X106921429Y-90671428D01*
X106635714Y-90742857D01*
X106492857Y-90814285D01*
X106350000Y-90957143D01*
X106278571Y-91171428D01*
X106278571Y-91314285D01*
X106350000Y-91528571D01*
X106421429Y-91600000D01*
X106421429Y-92171428D02*
X106350000Y-92242857D01*
X106278571Y-92385714D01*
X106278571Y-92742857D01*
X106350000Y-92885714D01*
X106421429Y-92957143D01*
X106564286Y-93028571D01*
X106707143Y-93028571D01*
X106921429Y-92957143D01*
X107778571Y-92100000D01*
X107778571Y-93028571D01*
X109900000Y-87885714D02*
X109900000Y-88600000D01*
X110328571Y-87742857D02*
X108828571Y-88242857D01*
X110328571Y-88742857D01*
X110328571Y-89242857D02*
X108828571Y-89242857D01*
X108828571Y-89600000D01*
X108900000Y-89814285D01*
X109042857Y-89957143D01*
X109185714Y-90028571D01*
X109471429Y-90100000D01*
X109685714Y-90100000D01*
X109971429Y-90028571D01*
X110114286Y-89957143D01*
X110257143Y-89814285D01*
X110328571Y-89600000D01*
X110328571Y-89242857D01*
X110185714Y-91600000D02*
X110257143Y-91528571D01*
X110328571Y-91314285D01*
X110328571Y-91171428D01*
X110257143Y-90957143D01*
X110114286Y-90814285D01*
X109971429Y-90742857D01*
X109685714Y-90671428D01*
X109471429Y-90671428D01*
X109185714Y-90742857D01*
X109042857Y-90814285D01*
X108900000Y-90957143D01*
X108828571Y-91171428D01*
X108828571Y-91314285D01*
X108900000Y-91528571D01*
X108971429Y-91600000D01*
X108828571Y-92100000D02*
X108828571Y-93028571D01*
X109400000Y-92528571D01*
X109400000Y-92742857D01*
X109471429Y-92885714D01*
X109542857Y-92957143D01*
X109685714Y-93028571D01*
X110042857Y-93028571D01*
X110185714Y-92957143D01*
X110257143Y-92885714D01*
X110328571Y-92742857D01*
X110328571Y-92314285D01*
X110257143Y-92171428D01*
X110185714Y-92100000D01*
D13*
X112787000Y-96432000D02*
X112787000Y-97362000D01*
X112787000Y-99592000D02*
X112787000Y-98662000D01*
X112787000Y-99592000D02*
X109627000Y-99592000D01*
X112787000Y-96432000D02*
X111327000Y-96432000D01*
X124987000Y-98732000D02*
X124987000Y-99662000D01*
X124987000Y-101892000D02*
X124987000Y-100962000D01*
X124987000Y-101892000D02*
X121827000Y-101892000D01*
X124987000Y-98732000D02*
X123527000Y-98732000D01*
X104637000Y-96902000D02*
X104637000Y-98162000D01*
X104637000Y-103722000D02*
X104637000Y-102462000D01*
X100877000Y-96902000D02*
X104637000Y-96902000D01*
X98627000Y-103722000D02*
X104637000Y-103722000D01*
X145215000Y-92440000D02*
X145215000Y-90440000D01*
X143075000Y-90440000D02*
X143075000Y-92440000D01*
X136833000Y-92694000D02*
X136833000Y-90694000D01*
X134693000Y-90694000D02*
X134693000Y-92694000D01*
X113527000Y-101542000D02*
X111527000Y-101542000D01*
X111527000Y-103682000D02*
X113527000Y-103682000D01*
X119647360Y-101444300D02*
X119647360Y-99444300D01*
X117507360Y-99444300D02*
X117507360Y-101444300D01*
X102900000Y-104480000D02*
X104900000Y-104480000D01*
X104900000Y-106520000D02*
X102900000Y-106520000D01*
D12*
X112122238Y-101059619D02*
X112217476Y-101012000D01*
X112312714Y-100916762D01*
X112455571Y-100773905D01*
X112550810Y-100726286D01*
X112646048Y-100726286D01*
X112598429Y-100964381D02*
X112693667Y-100916762D01*
X112788905Y-100821524D01*
X112836524Y-100631048D01*
X112836524Y-100297714D01*
X112788905Y-100107238D01*
X112693667Y-100012000D01*
X112598429Y-99964381D01*
X112407952Y-99964381D01*
X112312714Y-100012000D01*
X112217476Y-100107238D01*
X112169857Y-100297714D01*
X112169857Y-100631048D01*
X112217476Y-100821524D01*
X112312714Y-100916762D01*
X112407952Y-100964381D01*
X112598429Y-100964381D01*
X111217476Y-100964381D02*
X111788905Y-100964381D01*
X111503191Y-100964381D02*
X111503191Y-99964381D01*
X111598429Y-100107238D01*
X111693667Y-100202476D01*
X111788905Y-100250095D01*
X124322238Y-103359619D02*
X124417476Y-103312000D01*
X124512714Y-103216762D01*
X124655571Y-103073905D01*
X124750810Y-103026286D01*
X124846048Y-103026286D01*
X124798429Y-103264381D02*
X124893667Y-103216762D01*
X124988905Y-103121524D01*
X125036524Y-102931048D01*
X125036524Y-102597714D01*
X124988905Y-102407238D01*
X124893667Y-102312000D01*
X124798429Y-102264381D01*
X124607952Y-102264381D01*
X124512714Y-102312000D01*
X124417476Y-102407238D01*
X124369857Y-102597714D01*
X124369857Y-102931048D01*
X124417476Y-103121524D01*
X124512714Y-103216762D01*
X124607952Y-103264381D01*
X124798429Y-103264381D01*
X123988905Y-102359619D02*
X123941286Y-102312000D01*
X123846048Y-102264381D01*
X123607952Y-102264381D01*
X123512714Y-102312000D01*
X123465095Y-102359619D01*
X123417476Y-102454857D01*
X123417476Y-102550095D01*
X123465095Y-102692952D01*
X124036524Y-103264381D01*
X123417476Y-103264381D01*
X103488905Y-104264381D02*
X103488905Y-105073905D01*
X103441286Y-105169143D01*
X103393667Y-105216762D01*
X103298429Y-105264381D01*
X103107952Y-105264381D01*
X103012714Y-105216762D01*
X102965095Y-105169143D01*
X102917476Y-105073905D01*
X102917476Y-104264381D01*
X101917476Y-105264381D02*
X102488905Y-105264381D01*
X102203191Y-105264381D02*
X102203191Y-104264381D01*
X102298429Y-104407238D01*
X102393667Y-104502476D01*
X102488905Y-104550095D01*
X142747381Y-91273334D02*
X142271190Y-90940000D01*
X142747381Y-90701905D02*
X141747381Y-90701905D01*
X141747381Y-91082858D01*
X141795000Y-91178096D01*
X141842619Y-91225715D01*
X141937857Y-91273334D01*
X142080714Y-91273334D01*
X142175952Y-91225715D01*
X142223571Y-91178096D01*
X142271190Y-91082858D01*
X142271190Y-90701905D01*
X142747381Y-92225715D02*
X142747381Y-91654286D01*
X142747381Y-91940000D02*
X141747381Y-91940000D01*
X141890238Y-91844762D01*
X141985476Y-91749524D01*
X142033095Y-91654286D01*
X134365381Y-91527334D02*
X133889190Y-91194000D01*
X134365381Y-90955905D02*
X133365381Y-90955905D01*
X133365381Y-91336858D01*
X133413000Y-91432096D01*
X133460619Y-91479715D01*
X133555857Y-91527334D01*
X133698714Y-91527334D01*
X133793952Y-91479715D01*
X133841571Y-91432096D01*
X133889190Y-91336858D01*
X133889190Y-90955905D01*
X133460619Y-91908286D02*
X133413000Y-91955905D01*
X133365381Y-92051143D01*
X133365381Y-92289239D01*
X133413000Y-92384477D01*
X133460619Y-92432096D01*
X133555857Y-92479715D01*
X133651095Y-92479715D01*
X133793952Y-92432096D01*
X134365381Y-91860667D01*
X134365381Y-92479715D01*
X112693666Y-104914381D02*
X113027000Y-104438190D01*
X113265095Y-104914381D02*
X113265095Y-103914381D01*
X112884142Y-103914381D01*
X112788904Y-103962000D01*
X112741285Y-104009619D01*
X112693666Y-104104857D01*
X112693666Y-104247714D01*
X112741285Y-104342952D01*
X112788904Y-104390571D01*
X112884142Y-104438190D01*
X113265095Y-104438190D01*
X112360333Y-103914381D02*
X111741285Y-103914381D01*
X112074619Y-104295333D01*
X111931761Y-104295333D01*
X111836523Y-104342952D01*
X111788904Y-104390571D01*
X111741285Y-104485810D01*
X111741285Y-104723905D01*
X111788904Y-104819143D01*
X111836523Y-104866762D01*
X111931761Y-104914381D01*
X112217476Y-104914381D01*
X112312714Y-104866762D01*
X112360333Y-104819143D01*
X117179741Y-100277634D02*
X116703550Y-99944300D01*
X117179741Y-99706205D02*
X116179741Y-99706205D01*
X116179741Y-100087158D01*
X116227360Y-100182396D01*
X116274979Y-100230015D01*
X116370217Y-100277634D01*
X116513074Y-100277634D01*
X116608312Y-100230015D01*
X116655931Y-100182396D01*
X116703550Y-100087158D01*
X116703550Y-99706205D01*
X116513074Y-101134777D02*
X117179741Y-101134777D01*
X116132122Y-100896681D02*
X116846408Y-100658586D01*
X116846408Y-101277634D01*
X104066666Y-104107143D02*
X104114285Y-104154762D01*
X104257142Y-104202381D01*
X104352380Y-104202381D01*
X104495238Y-104154762D01*
X104590476Y-104059524D01*
X104638095Y-103964286D01*
X104685714Y-103773810D01*
X104685714Y-103630952D01*
X104638095Y-103440476D01*
X104590476Y-103345238D01*
X104495238Y-103250000D01*
X104352380Y-103202381D01*
X104257142Y-103202381D01*
X104114285Y-103250000D01*
X104066666Y-103297619D01*
X103114285Y-104202381D02*
X103685714Y-104202381D01*
X103400000Y-104202381D02*
X103400000Y-103202381D01*
X103495238Y-103345238D01*
X103590476Y-103440476D01*
X103685714Y-103488095D01*
M02*
