M48
;DRILL file {KiCad 4.0.7} date 04/05/18 15:19:13
;FORMAT={-:-/ absolute / metric / decimal}
FMAT,2
METRIC,TZ
T1C0.400
T2C1.000
T3C2.000
T4C3.000
%
G90
G05
M71
T1
X101.Y-77.6
X105.8Y-82.5
X115.5Y-99.9
X118.5Y-82.4
X127.1Y-98.1
T2
X94.35Y-86.1
X94.35Y-108.96
X96.89Y-86.1
X96.89Y-108.96
X99.43Y-86.1
X99.43Y-108.96
X101.97Y-86.1
X101.97Y-108.96
X104.51Y-86.1
X104.51Y-108.96
X107.05Y-86.1
X107.05Y-108.96
X109.59Y-86.1
X109.59Y-108.96
X112.13Y-86.1
X112.13Y-108.96
X114.67Y-86.1
X114.67Y-108.96
X117.21Y-86.1
X117.21Y-108.96
X119.75Y-86.1
X119.75Y-108.96
X122.29Y-86.1
X122.29Y-108.96
X124.83Y-86.1
X124.83Y-108.96
X127.37Y-86.1
X127.37Y-108.96
X129.91Y-86.1
X129.91Y-108.96
X132.45Y-86.1
X132.45Y-108.96
X134.99Y-86.1
X134.99Y-108.96
X137.53Y-86.1
X137.53Y-108.96
X148.7Y-88.26
X148.7Y-90.8
X148.971Y-99.187
X148.971Y-101.727
X148.971Y-104.267
X148.971Y-106.807
X151.6Y-88.26
X151.6Y-90.8
X151.638Y-99.187
X151.638Y-101.727
X151.638Y-104.267
X151.638Y-106.807
X161.9Y-99.1
X161.9Y-101.64
X161.9Y-104.18
X164.44Y-99.1
X164.44Y-101.64
X164.44Y-104.18
X167.2Y-99.1
X167.2Y-101.64
X167.2Y-104.18
X171.1Y-106.45
X173.64Y-106.45
X176.18Y-106.45
X192.103Y-89.24
X192.103Y-91.78
X192.103Y-94.32
T3
X182.2Y-77.8
X182.2Y-105.8
T4
X96.18Y-77.77
X96.42Y-105.77
X191.17Y-105.77
X191.18Y-77.77
T0
M30
